<svg width="1920" height="2018" viewBox="0 0 1920 2018" fill="none" xmlns="http://www.w3.org/2000/svg">
<g opacity="0.1">
<path d="M595.443 1396.95C551.444 1415.37 534.732 1460.53 563.49 1486.31C622.656 1539.35 866.233 1513.15 877.693 1477.19C888.983 1441.77 687.254 1358.51 595.443 1396.95Z" stroke="white" stroke-miterlimit="10"/>
<path d="M704.466 1278.97C804.968 1243.77 973.722 1494.39 904.065 1553.55C861.237 1589.94 757.561 1585.39 673.014 1573.43C593.643 1562.21 480.231 1516.32 452.251 1440.11C437.436 1399.65 446.329 1342 477.707 1321.81C501.991 1306.2 534.775 1313.22 542.007 1310.62C576.484 1324.92 581.543 1330.48 609.012 1333.84C644.916 1338.22 676.827 1288.65 704.466 1278.97Z" stroke="white" stroke-miterlimit="10"/>
<path d="M806.438 1155.71C923.162 1174.34 1050 1540.39 923.386 1624.64C842.747 1678.29 702.165 1654.6 604.177 1626.23C514.165 1600.18 364.285 1513.23 333.962 1388.63C316.334 1316.22 337.754 1214.37 399.124 1184.91C448.044 1161.43 511.076 1181.62 522.175 1183.18C587.774 1218.46 593.078 1236.41 641.924 1248.5C706.596 1264.48 757.657 1147.88 806.438 1155.71Z" stroke="white" stroke-miterlimit="10"/>
<path d="M901.019 1033.26C1029.9 1067.61 1118.89 1586.92 935.315 1696.53C816.834 1767.26 639.303 1724.83 527.948 1679.84C427.211 1639.16 241.49 1511.14 208.281 1337.96C188.246 1233.52 221.679 1087.68 313.139 1048.82C386.631 1017.58 480.487 1049.64 494.93 1056.54C595.901 1104.8 597.179 1143.15 667.475 1163.97C760.852 1191.69 833.524 1015.31 901.019 1033.26Z" stroke="white" stroke-miterlimit="10"/>
<path d="M989.912 916.385C1132.63 965.937 1181.86 1638.5 941.556 1774C785.072 1861.44 570.669 1800.74 446.042 1739.04C334.462 1683.81 113.136 1514.72 76.869 1292.85C54.5766 1156.47 99.8751 966.598 221.434 918.269C319.54 879.3 443.475 925.009 461.976 935.433C592.13 1008.77 595.496 1055.62 687.222 1085.02C809.325 1124.49 904.48 886.732 989.912 916.385Z" stroke="white" stroke-miterlimit="10"/>
<path d="M125.736 789.277C248.413 742.588 402.352 801.883 425.028 815.895C584.014 914.149 589.894 969.291 703.017 1007.55C853.867 1058.56 972.071 758.825 1074.74 800.989C1232.43 865.757 1241.28 1692.43 943.729 1852.95C749.573 1957.69 497.88 1878.21 360.057 1799.71C237.656 1730 -19.1174 1519.84 -58.5259 1249.24C-83.0231 1080.93 -25.9447 846.996 125.736 789.277Z" stroke="white" stroke-miterlimit="10"/>
<path d="M1453.23 704.098C1404.9 703.693 1346.95 619.909 1390.29 605.918C1415.32 597.826 1481.59 610.625 1507.62 633.399C1544.28 665.448 1486.48 704.385 1453.23 704.098Z" stroke="white" stroke-miterlimit="10"/>
<path d="M1321.9 617.652C1326.63 606.408 1348.77 601.415 1368.98 587.722C1409.96 559.932 1415.84 546.73 1444.95 529.971C1456.31 523.423 1471.58 514.82 1486.49 518.759C1509.33 524.796 1515.03 550.925 1544.01 596.943C1581.58 656.738 1595.81 672.198 1585.08 703.885C1582.57 711.253 1579.34 735.113 1561.24 749.668C1536.18 769.792 1506.8 754.247 1470.08 767.567C1425.97 783.538 1404.11 811.966 1384.97 799.402C1371.48 790.554 1370.98 766.321 1360.88 724.125C1353.19 691.981 1348.36 670.889 1339.01 653.682C1327.79 633.197 1316.64 630.152 1321.9 617.652Z" stroke="white" stroke-miterlimit="10"/>
<path d="M1248.04 641.087C1248.86 621.155 1280.17 611.508 1305.98 582.707C1358.9 523.625 1334.38 481.408 1376.81 438.244C1394.81 419.92 1423.05 402.171 1451.36 405.61C1491.54 410.497 1505.03 451.99 1566.88 536.114C1647.75 646.101 1682.19 667.641 1674.64 726.255C1673.1 738.201 1671.59 784.07 1639.99 811.679C1597.85 848.497 1547.33 815.001 1481.35 842.673C1407.62 873.55 1380.07 939.564 1355.21 925.903C1337.94 916.417 1344.56 878.214 1331.29 803.704C1321.89 750.744 1316.09 719.792 1297.31 694.441C1273.61 662.467 1247.15 662.733 1248.04 641.087Z" stroke="white" stroke-miterlimit="10"/>
<path d="M1174.1 664.266C1170.9 635.699 1211.45 621.336 1242.9 577.426C1307.66 487.03 1251.83 416.374 1308.59 346.251C1332.88 316.246 1374.55 289.404 1416.16 292.205C1473.84 296.08 1495.15 352.618 1589.77 475.03C1714.18 634.975 1767.75 663.137 1764.24 748.369C1763.54 764.99 1763.86 832.75 1718.78 873.465C1659.54 926.947 1587.77 875.435 1492.66 917.545C1389.24 963.329 1356.09 1066.9 1325.44 1052.18C1304.4 1042 1317.88 989.873 1301.68 883.048C1290.49 809.272 1283.75 768.61 1255.59 734.964C1219.29 691.608 1177.52 695.037 1174.1 664.266Z" stroke="white" stroke-miterlimit="10"/>
<path d="M1099.99 687.381C1092.82 650.211 1142.49 631.078 1179.66 572.092C1256.11 450.329 1168.85 351.51 1240.21 254.204C1270.71 212.573 1325.91 176.628 1380.8 178.736C1456.02 181.632 1484.81 253.406 1612.45 413.893C1780 624.072 1852.92 658.783 1853.57 770.431C1853.69 791.726 1855.8 881.312 1797.29 935.188C1720.88 1005.27 1628 935.774 1503.69 992.364C1370.56 1052.99 1331.82 1194.21 1295.5 1178.41C1270.68 1167.57 1291.02 1101.47 1271.9 962.339C1258.89 867.737 1251.25 817.418 1213.71 775.435C1164.78 720.75 1107.7 727.352 1099.99 687.381Z" stroke="white" stroke-miterlimit="10"/>
<path d="M1025.74 710.486C1037.75 759.677 1110.11 749.881 1171.66 815.895C1218.6 866.225 1227.13 926.18 1241.96 1041.62C1263.97 1213.04 1236.79 1293.12 1265.39 1304.61C1307.43 1321.51 1351.75 1142.63 1514.62 1067.17C1668.06 996.091 1782.24 1083.72 1875.69 996.9C1947.73 929.96 1943.73 818.546 1942.79 792.471C1937.83 654.438 1845.68 613.148 1634.98 352.735C1474.31 154.172 1438.07 67.1834 1345.27 65.2562C1277.1 63.8401 1208.35 108.91 1171.66 162.147C1085.74 286.721 1204.6 413.755 1116.27 566.747C1073.47 640.884 1014.57 664.724 1025.74 710.486Z" stroke="white" stroke-miterlimit="10"/>
<path d="M1639.82 1502.22C1627.21 1495.84 1600.73 1508.14 1598.39 1527.32C1595.74 1549.07 1625.7 1567.07 1638.86 1561.48C1654.44 1554.85 1656.55 1510.68 1639.82 1502.22Z" stroke="white" stroke-miterlimit="10"/>
<path d="M1675.35 1617.8C1696.85 1597.71 1706.24 1560.84 1716.99 1497.63C1727.64 1434.96 1725.97 1390.1 1716.61 1386.84C1711.5 1385.08 1697.05 1398.83 1684.65 1408.9C1661.44 1427.7 1621.72 1425.62 1611.53 1427.65C1574.25 1435.1 1563.31 1448.94 1547.72 1475.46C1540.51 1487.7 1523.69 1514.85 1516.29 1546.79C1505 1595.16 1454.4 1610.07 1460.57 1629.46C1465.75 1645.64 1515.89 1649.57 1548.39 1650.03C1594.98 1650.69 1642.12 1648.83 1675.35 1617.8Z" stroke="white" stroke-miterlimit="10"/>
<path d="M1712.61 1671.81C1747.94 1635.91 1761.84 1575.66 1783.25 1462.98C1805 1349.75 1804.86 1272.09 1794.14 1269.2C1786.1 1266.98 1760.06 1294.97 1737.93 1314.98C1696.21 1352.85 1621.52 1346.62 1606.13 1349.05C1535.94 1359.89 1518.65 1385.86 1491.44 1434.94C1480.11 1455.39 1449.02 1505.22 1434.86 1564.06C1413.05 1654.21 1309.69 1677.82 1318.24 1711.24C1325.38 1739.07 1421.24 1743.34 1481.56 1741.05C1566.72 1737.74 1652.91 1732.5 1712.61 1671.81Z" stroke="white" stroke-miterlimit="10"/>
<path d="M1749.67 1725.48C1798.86 1673.77 1817.11 1590.1 1849.29 1427.97C1881.98 1264.16 1883.51 1153.88 1871.47 1151.14C1860.45 1148.58 1822.84 1190.75 1791.03 1220.74C1730.91 1277.78 1621.17 1267.29 1600.56 1270.04C1497.48 1283.79 1473.74 1322.26 1434.99 1394.03C1419.53 1422.66 1374.19 1495.18 1353.24 1580.9C1320.95 1712.84 1164.81 1745.12 1175.73 1792.59C1184.85 1832.07 1326.45 1836.85 1414.55 1831.62C1538.28 1824.65 1663.64 1815.89 1749.67 1725.48Z" stroke="white" stroke-miterlimit="10"/>
<path d="M1786.6 1779.11C1849.7 1711.6 1872.27 1604.49 1915.23 1392.92C1958.9 1178.54 1962.1 1035.69 1948.7 1033.04C1934.68 1030.24 1885.49 1086.4 1844.03 1126.4C1765.39 1202.48 1620.73 1187.84 1594.9 1190.98C1458.93 1207.47 1428.56 1258.54 1378.44 1353.05C1358.78 1389.85 1299.25 1485.08 1271.53 1597.69C1228.74 1771.41 1019.82 1812.38 1033.13 1873.89C1044.2 1925 1231.55 1930.1 1347.45 1922.16C1509.68 1911.22 1674.29 1899.28 1786.6 1779.11Z" stroke="white" stroke-miterlimit="10"/>
<path d="M1589.18 1111.89C1420.33 1131.06 1383.61 1194.94 1321.84 1312.06C1298.09 1357.09 1224.25 1474.97 1189.77 1614.45C1136.51 1829.97 874.785 1879.62 890.474 1955.16C903.511 2017.98 1136.6 2023.31 1280.3 2012.66C1481.09 1997.75 1684.92 1982.65 1823.5 1832.72C1900.49 1749.4 1927.38 1618.89 1981.13 1357.85C2035.7 1092.9 2040.56 917.492 2025.87 914.915C2008.82 911.934 1948.11 981.994 1896.99 1032.04C1799.81 1127.14 1620.24 1108.37 1589.18 1111.89Z" stroke="white" stroke-miterlimit="10"/>
<path d="M216.269 599.753C235.441 673.22 373.051 638.712 536.863 804.183C595.56 863.478 634.915 925.499 712.603 935.145C720.442 936.114 798.269 944.621 853.196 894.685C922.299 831.866 880.122 744.717 960.771 623.178C990.476 578.406 995.418 591.406 1017.22 556.099C1110.27 405.386 968.354 252.384 1050.24 99.3277C1087.93 28.8742 1143.97 12.7009 1138.64 3.50154C1115.66 -35.9682 164.463 401.787 216.269 599.753Z" stroke="white" stroke-miterlimit="10"/>
<path d="M733.905 834.709C738.613 834.07 789.929 837.903 825.131 802.596C869.641 758.016 837.912 696.634 888.909 613.766C907.676 583.25 910.285 591.523 923.641 567.386C980.624 464.383 878.354 360.763 928.434 259.932C951.611 213.254 988.197 202.554 982.754 197.997C958.14 177.213 330.298 484.251 379.612 617.854C398.102 667.961 499.041 650.179 614.54 758.101C656.537 797.315 684.975 841.342 733.905 834.709Z" stroke="white" stroke-miterlimit="10"/>
<path d="M755.207 734.262C756.549 730.886 781.643 730.961 797.065 710.507C817.089 683.974 795.766 648.625 817.047 604.364C824.854 588.116 825.173 591.587 830.073 578.672C851.108 523.125 788.268 469.206 806.641 420.527C815.236 397.613 831.212 393.706 826.952 392.481C795.809 396.9 496.772 567.013 542.902 635.955C560.912 662.892 625.383 661.604 692.164 712.019C717.545 731.185 734.161 745.218 755.207 734.262Z" stroke="white" stroke-miterlimit="10"/>
<path d="M776.509 633.825C759.979 585.539 694.901 569.121 671.065 586.977C635.916 613.34 665.899 647.667 706.213 654.055C736.344 658.793 795.425 689.085 776.509 633.825Z" stroke="white" stroke-miterlimit="10"/>
</g>
</svg>
