<svg width="1920" height="1175" viewBox="0 0 1920 1175" fill="none" xmlns="http://www.w3.org/2000/svg">
<path d="M-83.2009 717.672C-83.2009 717.672 171.985 487.018 376.489 469.227C592.238 450.457 784.722 619.378 1058.37 565.204C1332.03 511.029 1304.26 227.621 1565.07 185.053C1825.87 142.484 2012.64 248.072 2012.64 248.072" stroke="#E5EDFD" stroke-opacity="0.5"/>
<path d="M-74.0329 786.163C-74.0329 786.163 181.153 555.509 385.657 537.718C601.406 518.948 793.89 687.87 1067.54 633.695C1341.19 579.52 1313.43 296.113 1574.23 253.544C1835.04 210.976 2021.81 316.563 2021.81 316.563" stroke="#E5EDFD" stroke-opacity="0.5"/>
<path d="M-51.112 826.259C-51.112 826.259 204.074 595.605 408.578 577.813C624.327 559.044 816.811 727.965 1090.46 673.791C1364.11 619.616 1336.35 336.208 1597.16 293.64C1857.96 251.071 2044.73 356.659 2044.73 356.659" stroke="#E5EDFD" stroke-opacity="0.5"/>
<path d="M-41.944 894.75C-41.944 894.75 213.242 664.096 417.746 646.305C633.495 627.535 825.979 796.457 1099.63 742.282C1373.28 688.107 1345.52 404.7 1606.32 362.131C1867.13 319.563 2053.9 425.15 2053.9 425.15" stroke="#E5EDFD" stroke-opacity="0.5"/>
<path d="M-19.2721 934.015C-19.2721 934.015 235.914 703.361 440.417 685.57C656.167 666.801 848.651 835.722 1122.3 781.547C1395.95 727.373 1368.19 443.965 1629 401.396C1889.8 358.828 2076.57 464.415 2076.57 464.415" stroke="#E5EDFD" stroke-opacity="0.5"/>
<path d="M-10.1042 1002.51C-10.1042 1002.51 245.082 771.853 449.585 754.062C665.335 735.292 857.819 904.214 1131.47 850.039C1405.12 795.864 1377.36 512.456 1638.16 469.888C1898.97 427.319 2085.74 532.907 2085.74 532.907" stroke="#E5EDFD" stroke-opacity="0.5"/>
</svg>
