<svg width="112" height="114" viewBox="0 0 112 114" fill="none" xmlns="http://www.w3.org/2000/svg">
<rect width="3.00764" height="3.09095" rx="1.42451" fill="#236BFF" fill-opacity="0.15"/>
<rect x="12.0312" width="3.00764" height="3.09095" rx="1.42451" fill="#236BFF" fill-opacity="0.15"/>
<rect x="24.0586" width="3.00764" height="3.09095" rx="1.42451" fill="#236BFF" fill-opacity="0.15"/>
<rect x="36.0938" width="3.00764" height="3.09095" rx="1.42451" fill="#236BFF" fill-opacity="0.15"/>
<rect x="48.125" width="3.00764" height="3.09095" rx="1.42451" fill="#236BFF" fill-opacity="0.15"/>
<rect x="60.1523" width="3.00764" height="3.09095" rx="1.42451" fill="#236BFF" fill-opacity="0.15"/>
<rect x="72.1836" width="3.00764" height="3.09095" rx="1.42451" fill="#236BFF" fill-opacity="0.15"/>
<rect x="84.2188" width="3.00764" height="3.09095" rx="1.42451" fill="#236BFF" fill-opacity="0.15"/>
<rect x="96.2461" width="3.00764" height="3.09095" rx="1.42451" fill="#236BFF" fill-opacity="0.15"/>
<rect x="108.272" width="3.00764" height="3.09095" rx="1.42451" fill="#236BFF" fill-opacity="0.15"/>
<rect y="12.3643" width="3.00764" height="3.09095" rx="1.42451" fill="#236BFF" fill-opacity="0.15"/>
<rect x="12.0312" y="12.3643" width="3.00764" height="3.09095" rx="1.42451" fill="#236BFF" fill-opacity="0.15"/>
<rect x="24.0586" y="12.3643" width="3.00764" height="3.09095" rx="1.42451" fill="#236BFF" fill-opacity="0.15"/>
<rect x="36.0938" y="12.3643" width="3.00764" height="3.09095" rx="1.42451" fill="#236BFF" fill-opacity="0.15"/>
<rect x="48.125" y="12.3643" width="3.00764" height="3.09095" rx="1.42451" fill="#236BFF" fill-opacity="0.15"/>
<rect x="60.1523" y="12.3643" width="3.00764" height="3.09095" rx="1.42451" fill="#236BFF" fill-opacity="0.15"/>
<rect x="72.1836" y="12.3643" width="3.00764" height="3.09095" rx="1.42451" fill="#236BFF" fill-opacity="0.15"/>
<rect x="84.2188" y="12.3643" width="3.00764" height="3.09095" rx="1.42451" fill="#236BFF" fill-opacity="0.15"/>
<rect x="96.2461" y="12.3643" width="3.00764" height="3.09095" rx="1.42451" fill="#236BFF" fill-opacity="0.15"/>
<rect x="108.272" y="12.3643" width="3.00764" height="3.09095" rx="1.42451" fill="#236BFF" fill-opacity="0.15"/>
<rect y="24.7277" width="3.00764" height="3.09095" rx="1.42451" fill="#236BFF" fill-opacity="0.15"/>
<rect x="12.0312" y="24.7277" width="3.00764" height="3.09095" rx="1.42451" fill="#236BFF" fill-opacity="0.15"/>
<rect x="24.0586" y="24.7277" width="3.00764" height="3.09095" rx="1.42451" fill="#236BFF" fill-opacity="0.15"/>
<rect x="36.0938" y="24.7277" width="3.00764" height="3.09095" rx="1.42451" fill="#236BFF" fill-opacity="0.15"/>
<rect x="48.125" y="24.7277" width="3.00764" height="3.09095" rx="1.42451" fill="#236BFF" fill-opacity="0.15"/>
<rect x="60.1523" y="24.7277" width="3.00764" height="3.09095" rx="1.42451" fill="#236BFF" fill-opacity="0.15"/>
<rect x="72.1836" y="24.7277" width="3.00764" height="3.09095" rx="1.42451" fill="#236BFF" fill-opacity="0.15"/>
<rect x="84.2188" y="24.7277" width="3.00764" height="3.09095" rx="1.42451" fill="#236BFF" fill-opacity="0.15"/>
<rect x="96.2461" y="24.7277" width="3.00764" height="3.09095" rx="1.42451" fill="#236BFF" fill-opacity="0.15"/>
<rect x="108.272" y="24.7277" width="3.00764" height="3.09095" rx="1.42451" fill="#236BFF" fill-opacity="0.15"/>
<rect y="37.0918" width="3.00764" height="3.09095" rx="1.42451" fill="#236BFF" fill-opacity="0.15"/>
<rect x="12.0312" y="37.0918" width="3.00764" height="3.09095" rx="1.42451" fill="#236BFF" fill-opacity="0.15"/>
<rect x="24.0586" y="37.0918" width="3.00764" height="3.09095" rx="1.42451" fill="#236BFF" fill-opacity="0.15"/>
<rect x="36.0938" y="37.0918" width="3.00764" height="3.09095" rx="1.42451" fill="#236BFF" fill-opacity="0.15"/>
<rect x="48.125" y="37.0918" width="3.00764" height="3.09095" rx="1.42451" fill="#236BFF" fill-opacity="0.15"/>
<rect x="60.1523" y="37.0918" width="3.00764" height="3.09095" rx="1.42451" fill="#236BFF" fill-opacity="0.15"/>
<rect x="72.1836" y="37.0918" width="3.00764" height="3.09095" rx="1.42451" fill="#236BFF" fill-opacity="0.15"/>
<rect x="84.2188" y="37.0918" width="3.00764" height="3.09095" rx="1.42451" fill="#236BFF" fill-opacity="0.15"/>
<rect x="96.2461" y="37.0918" width="3.00764" height="3.09095" rx="1.42451" fill="#236BFF" fill-opacity="0.15"/>
<rect x="108.272" y="37.0918" width="3.00764" height="3.09095" rx="1.42451" fill="#236BFF" fill-opacity="0.15"/>
<rect y="49.4552" width="3.00764" height="3.09095" rx="1.42451" fill="#236BFF" fill-opacity="0.15"/>
<rect x="12.0312" y="49.4552" width="3.00764" height="3.09095" rx="1.42451" fill="#236BFF" fill-opacity="0.15"/>
<rect x="24.0586" y="49.4552" width="3.00764" height="3.09095" rx="1.42451" fill="#236BFF" fill-opacity="0.15"/>
<rect x="36.0938" y="49.4552" width="3.00764" height="3.09095" rx="1.42451" fill="#236BFF" fill-opacity="0.15"/>
<rect x="48.125" y="49.4552" width="3.00764" height="3.09095" rx="1.42451" fill="#236BFF" fill-opacity="0.15"/>
<rect x="60.1523" y="49.4552" width="3.00764" height="3.09095" rx="1.42451" fill="#236BFF" fill-opacity="0.15"/>
<rect x="72.1836" y="49.4552" width="3.00764" height="3.09095" rx="1.42451" fill="#236BFF" fill-opacity="0.15"/>
<rect x="84.2188" y="49.4552" width="3.00764" height="3.09095" rx="1.42451" fill="#236BFF" fill-opacity="0.15"/>
<rect x="96.2461" y="49.4552" width="3.00764" height="3.09095" rx="1.42451" fill="#236BFF" fill-opacity="0.15"/>
<rect x="108.272" y="49.4552" width="3.00764" height="3.09095" rx="1.42451" fill="#236BFF" fill-opacity="0.15"/>
<rect y="61.8191" width="3.00764" height="3.09095" rx="1.42451" fill="#236BFF" fill-opacity="0.15"/>
<rect x="12.0312" y="61.8191" width="3.00764" height="3.09095" rx="1.42451" fill="#236BFF" fill-opacity="0.15"/>
<rect x="24.0586" y="61.8191" width="3.00764" height="3.09095" rx="1.42451" fill="#236BFF" fill-opacity="0.15"/>
<rect x="36.0938" y="61.8191" width="3.00764" height="3.09095" rx="1.42451" fill="#236BFF" fill-opacity="0.15"/>
<rect x="48.125" y="61.8191" width="3.00764" height="3.09095" rx="1.42451" fill="#236BFF" fill-opacity="0.15"/>
<rect x="60.1523" y="61.8191" width="3.00764" height="3.09095" rx="1.42451" fill="#236BFF" fill-opacity="0.15"/>
<rect x="72.1836" y="61.8191" width="3.00764" height="3.09095" rx="1.42451" fill="#236BFF" fill-opacity="0.15"/>
<rect x="84.2188" y="61.8191" width="3.00764" height="3.09095" rx="1.42451" fill="#236BFF" fill-opacity="0.15"/>
<rect x="96.2461" y="61.8191" width="3.00764" height="3.09095" rx="1.42451" fill="#236BFF" fill-opacity="0.15"/>
<rect x="108.272" y="61.8191" width="3.00764" height="3.09095" rx="1.42451" fill="#236BFF" fill-opacity="0.15"/>
<rect y="74.1829" width="3.00764" height="3.09095" rx="1.42451" fill="#236BFF" fill-opacity="0.15"/>
<rect y="86.1073" width="3.00764" height="3.09095" rx="1.42451" fill="#236BFF" fill-opacity="0.15"/>
<rect y="98.0322" width="3.00764" height="3.09095" rx="1.42451" fill="#236BFF" fill-opacity="0.15"/>
<rect y="109.956" width="3.00764" height="3.09095" rx="1.42451" fill="#236BFF" fill-opacity="0.15"/>
<rect x="12.0312" y="74.1829" width="3.00764" height="3.09095" rx="1.42451" fill="#236BFF" fill-opacity="0.15"/>
<rect x="12.0312" y="86.1073" width="3.00764" height="3.09095" rx="1.42451" fill="#236BFF" fill-opacity="0.15"/>
<rect x="12.0312" y="98.0322" width="3.00764" height="3.09095" rx="1.42451" fill="#236BFF" fill-opacity="0.15"/>
<rect x="12.0312" y="109.956" width="3.00764" height="3.09095" rx="1.42451" fill="#236BFF" fill-opacity="0.15"/>
<rect x="24.0586" y="74.1829" width="3.00764" height="3.09095" rx="1.42451" fill="#236BFF" fill-opacity="0.15"/>
<rect x="24.0586" y="86.1073" width="3.00764" height="3.09095" rx="1.42451" fill="#236BFF" fill-opacity="0.15"/>
<rect x="24.0586" y="98.0322" width="3.00764" height="3.09095" rx="1.42451" fill="#236BFF" fill-opacity="0.15"/>
<rect x="24.0586" y="109.956" width="3.00764" height="3.09095" rx="1.42451" fill="#236BFF" fill-opacity="0.15"/>
<rect x="36.0938" y="74.1829" width="3.00764" height="3.09095" rx="1.42451" fill="#236BFF" fill-opacity="0.15"/>
<rect x="36.0938" y="86.1073" width="3.00764" height="3.09095" rx="1.42451" fill="#236BFF" fill-opacity="0.15"/>
<rect x="36.0938" y="98.0322" width="3.00764" height="3.09095" rx="1.42451" fill="#236BFF" fill-opacity="0.15"/>
<rect x="36.0938" y="109.956" width="3.00764" height="3.09095" rx="1.42451" fill="#236BFF" fill-opacity="0.15"/>
<rect x="48.125" y="74.1829" width="3.00764" height="3.09095" rx="1.42451" fill="#236BFF" fill-opacity="0.15"/>
<rect x="48.125" y="86.1073" width="3.00764" height="3.09095" rx="1.42451" fill="#236BFF" fill-opacity="0.15"/>
<rect x="48.125" y="98.0322" width="3.00764" height="3.09095" rx="1.42451" fill="#236BFF" fill-opacity="0.15"/>
<rect x="48.125" y="109.956" width="3.00764" height="3.09095" rx="1.42451" fill="#236BFF" fill-opacity="0.15"/>
<rect x="60.1523" y="74.1829" width="3.00764" height="3.09095" rx="1.42451" fill="#236BFF" fill-opacity="0.15"/>
<rect x="60.1523" y="86.1073" width="3.00764" height="3.09095" rx="1.42451" fill="#236BFF" fill-opacity="0.15"/>
<rect x="60.1523" y="98.0322" width="3.00764" height="3.09095" rx="1.42451" fill="#236BFF" fill-opacity="0.15"/>
<rect x="60.1523" y="109.956" width="3.00764" height="3.09095" rx="1.42451" fill="#236BFF" fill-opacity="0.15"/>
<rect x="72.1836" y="74.1829" width="3.00764" height="3.09095" rx="1.42451" fill="#236BFF" fill-opacity="0.15"/>
<rect x="72.1836" y="86.1073" width="3.00764" height="3.09095" rx="1.42451" fill="#236BFF" fill-opacity="0.15"/>
<rect x="72.1836" y="98.0322" width="3.00764" height="3.09095" rx="1.42451" fill="#236BFF" fill-opacity="0.15"/>
<rect x="72.1836" y="109.956" width="3.00764" height="3.09095" rx="1.42451" fill="#236BFF" fill-opacity="0.15"/>
<rect x="84.2188" y="74.1829" width="3.00764" height="3.09095" rx="1.42451" fill="#236BFF" fill-opacity="0.15"/>
<rect x="84.2188" y="86.1073" width="3.00764" height="3.09095" rx="1.42451" fill="#236BFF" fill-opacity="0.15"/>
<rect x="84.2188" y="98.0322" width="3.00764" height="3.09095" rx="1.42451" fill="#236BFF" fill-opacity="0.15"/>
<rect x="84.2188" y="109.956" width="3.00764" height="3.09095" rx="1.42451" fill="#236BFF" fill-opacity="0.15"/>
<rect x="96.2461" y="74.1829" width="3.00764" height="3.09095" rx="1.42451" fill="#236BFF" fill-opacity="0.15"/>
<rect x="96.2461" y="86.1073" width="3.00764" height="3.09095" rx="1.42451" fill="#236BFF" fill-opacity="0.15"/>
<rect x="96.2461" y="98.0322" width="3.00764" height="3.09095" rx="1.42451" fill="#236BFF" fill-opacity="0.15"/>
<rect x="96.2461" y="109.956" width="3.00764" height="3.09095" rx="1.42451" fill="#236BFF" fill-opacity="0.15"/>
<rect x="108.272" y="74.1829" width="3.00764" height="3.09095" rx="1.42451" fill="#236BFF" fill-opacity="0.15"/>
<rect x="108.272" y="86.1073" width="3.00764" height="3.09095" rx="1.42451" fill="#236BFF" fill-opacity="0.15"/>
<rect x="108.272" y="98.0322" width="3.00764" height="3.09095" rx="1.42451" fill="#236BFF" fill-opacity="0.15"/>
<rect x="108.272" y="109.956" width="3.00764" height="3.09095" rx="1.42451" fill="#236BFF" fill-opacity="0.15"/>
</svg>
