<svg width="97" height="46" viewBox="0 0 97 46" fill="none" xmlns="http://www.w3.org/2000/svg">
<rect x="5.92969" width="92" height="31" rx="15.5" transform="rotate(9.15348 5.92969 0)" fill="#EAF2FE"/>
<path d="M21.2873 23.5996C21.2437 23.5683 21.1713 23.4898 21.07 23.364C20.9805 23.2402 20.893 23.1046 20.8074 22.9571C20.7236 22.7977 20.6697 22.6797 20.6457 22.6029C20.6197 22.5379 20.6368 22.4313 20.6972 22.283C20.7694 22.1366 20.8292 22.0672 20.8766 22.0749C20.9083 22.1043 20.9624 22.0705 21.0388 21.9734C21.1152 21.8763 21.1926 21.7733 21.2709 21.6644C21.3511 21.5436 21.3932 21.4714 21.397 21.4477C21.4165 21.4022 21.4518 21.3714 21.503 21.3554C21.568 21.3294 21.627 21.3024 21.6801 21.2745C21.7547 21.1893 21.8469 21.1069 21.957 21.0274C22.0808 20.938 22.178 20.8625 22.2487 20.8009C22.3626 20.6977 22.563 20.5477 22.85 20.3508C23.1369 20.154 23.4189 19.9502 23.696 19.7396C23.9887 19.5072 24.246 19.3056 24.468 19.1348C24.692 18.952 24.8165 18.8202 24.8417 18.7392C24.8417 18.7392 24.8624 18.7243 24.9036 18.6944C24.9587 18.6547 25.0186 18.6218 25.0836 18.5958C25.1486 18.5698 25.2351 18.523 25.3433 18.4553C25.4633 18.3896 25.5645 18.3269 25.6471 18.2673C25.686 18.1763 25.7565 18.0783 25.8585 17.9732C25.9743 17.8581 26.101 17.7509 26.2385 17.6515C26.3562 17.5246 26.4699 17.3849 26.5795 17.2324C26.6911 17.0681 26.7654 16.9464 26.8025 16.8672C26.859 16.7426 26.8596 16.6637 26.8042 16.6305C26.7507 16.5854 26.6003 16.5004 26.353 16.3755C26.0839 16.2349 25.8202 16.1742 25.5619 16.1933C25.3036 16.2125 24.9432 16.3367 24.4808 16.5661C24.3092 16.5749 24.1476 16.5975 23.9959 16.6338C23.856 16.672 23.7396 16.6776 23.6468 16.6505C23.6032 16.6191 23.5585 16.5572 23.5126 16.4648C23.4667 16.3723 23.414 16.2848 23.3544 16.2022L23.2998 15.4095L23.8993 15.1961C24.4347 14.9664 24.934 14.8098 25.3971 14.7264C25.8741 14.6331 26.2698 14.6665 26.5843 14.8266C26.7147 14.8475 26.8303 14.8844 26.9312 14.9371C27.034 14.978 27.0854 14.9984 27.0854 14.9984C27.1821 15.0019 27.3107 15.0712 27.4712 15.2065C27.6436 15.3436 27.8052 15.5095 27.9562 15.704C28.1191 15.9004 28.2226 16.0872 28.267 16.2645C28.4107 16.5794 28.4265 16.9344 28.3142 17.3296C28.2019 17.7248 27.9623 18.1177 27.5955 18.5083C27.5248 18.5698 27.3706 18.6969 27.133 18.8896C26.8953 19.0822 26.6232 19.2997 26.3168 19.542C26.0241 19.7744 25.7539 19.9801 25.5063 20.159C25.2706 20.3398 25.1183 20.455 25.0495 20.5047C24.9609 20.5269 24.8006 20.6165 24.5686 20.7736C24.3485 20.9326 24.1068 21.1125 23.8435 21.3131C23.594 21.5039 23.3779 21.6757 23.1953 21.8286C23.0264 21.9715 22.9538 22.0449 22.9775 22.0487C22.958 22.0942 23.0173 22.1038 23.1552 22.0774C23.3069 22.0411 23.4389 22.0137 23.5513 21.9953C23.7386 21.9647 23.9545 21.9448 24.199 21.9356C24.4574 21.9165 24.7138 21.9092 24.9683 21.9137C25.2228 21.9183 25.4399 21.9289 25.6195 21.9457C25.811 21.9644 25.9216 21.9944 25.9514 22.0357C25.9656 22.0987 25.9796 22.1253 25.9933 22.1153C26.0208 22.0955 26.0346 22.0855 26.0346 22.0855C26.0716 22.0064 26.2235 22.0066 26.4903 22.086C26.7689 22.1674 27.015 22.2617 27.2287 22.3691C27.3533 22.4256 27.4463 22.4893 27.5079 22.5599C27.5813 22.6325 27.6141 22.6925 27.6065 22.7399C27.6065 22.7399 27.6136 22.7715 27.6277 22.8345C27.6556 22.8876 27.6984 22.9614 27.7562 23.0558C27.9209 23.2403 27.8942 23.4062 27.676 23.5533C27.4696 23.7024 27.1362 23.6973 26.6757 23.538C26.3677 23.4884 26.1101 23.4651 25.9029 23.4682C25.8517 23.4843 25.7491 23.4799 25.5951 23.4551C25.4411 23.4302 25.2921 23.4123 25.148 23.4012C24.9386 23.3432 24.7234 23.3207 24.5025 23.3337C24.2835 23.3349 24.0183 23.359 23.7069 23.4061C23.5945 23.4244 23.4201 23.451 23.1835 23.4858C22.947 23.5206 22.6926 23.5526 22.4205 23.5817C22.1485 23.6108 21.9029 23.6259 21.6839 23.6271C21.4768 23.6302 21.3446 23.621 21.2873 23.5996ZM31.6012 25.3527C31.5183 25.3393 31.3691 25.2849 31.1535 25.1894C30.9498 25.0958 30.7362 24.9884 30.5126 24.8673C30.3028 24.7363 30.1413 24.6069 30.0281 24.4793C29.6807 24.0708 29.4515 23.645 29.3406 23.2017C29.2317 22.7465 29.1947 22.2969 29.2298 21.8529C29.2767 21.4107 29.3613 20.9989 29.4835 20.6175C29.736 19.8803 30.1297 19.1719 30.6647 18.4923C31.2015 17.8009 31.8002 17.2532 32.4609 16.8492C32.8129 16.6263 33.1581 16.4449 33.4967 16.305C33.8353 16.1651 34.1889 16.0823 34.5577 16.0566C34.6938 16.0421 34.8802 16.0539 35.1172 16.0921C35.3679 16.1203 35.5347 16.1411 35.6176 16.1545C35.8546 16.1927 36.1066 16.288 36.3738 16.4404C36.6547 16.5829 36.8903 16.7424 37.0807 16.9189C37.2729 17.0836 37.3595 17.2252 37.3404 17.3437C37.327 17.4266 37.3077 17.5086 37.2825 17.5896C37.2573 17.6706 37.2012 17.6798 37.114 17.6171L36.9363 17.5885L37.0281 18.1503C37.0602 18.2527 37.0807 18.3897 37.0895 18.5613C37.1002 18.721 37.0951 18.866 37.0741 18.9964C37.055 19.1148 37.0086 19.2897 36.9349 19.5209C36.8749 19.7422 36.7943 19.9784 36.6931 20.2294C36.6037 20.4825 36.5113 20.7167 36.4157 20.9323C36.3321 21.1497 36.258 21.308 36.1934 21.407C36.1464 21.4723 36.1113 21.5396 36.088 21.6088C36.0784 21.668 36.0698 21.7213 36.0622 21.7687C35.9995 21.8558 35.8958 22.0093 35.751 22.229C35.6062 22.4488 35.5025 22.6023 35.4398 22.6894C35.3848 22.7292 35.3366 22.7639 35.2954 22.7938C35.2659 22.8255 35.2711 22.8689 35.3109 22.9239C35.3051 22.9594 35.2621 23.0376 35.1819 23.1584C35.1036 23.2673 35.0203 23.3693 34.932 23.4645C34.8556 23.5616 34.7996 23.6073 34.7641 23.6015C34.7641 23.6015 34.7454 23.6046 34.7079 23.6107C34.6842 23.6069 34.6695 23.6228 34.6638 23.6583C34.6561 23.7057 34.5532 23.8167 34.3549 23.9914C34.1684 24.168 33.9514 24.3457 33.7037 24.5246C33.5662 24.624 33.3518 24.7475 33.0606 24.895C32.7714 25.0307 32.4849 25.1487 32.2014 25.2488C31.9316 25.3391 31.7316 25.3737 31.6012 25.3527ZM31.8406 23.641C31.9709 23.662 32.0982 23.6642 32.2224 23.6478C32.3485 23.6195 32.4597 23.5705 32.556 23.501C32.7921 23.3932 33.0241 23.2361 33.2518 23.0297C33.4914 22.8252 33.7012 22.5794 33.8811 22.2924C34.0401 22.1357 34.1703 21.9683 34.272 21.7902C34.3874 21.6021 34.5662 21.2845 34.8084 20.8374C34.9242 20.7223 35.0151 20.5729 35.0812 20.3891C35.1473 20.2052 35.1908 20.0482 35.2118 19.9178C35.2328 19.7875 35.2614 19.6098 35.2977 19.3847C35.3458 19.1615 35.406 18.9767 35.4782 18.8304C35.5278 18.5223 35.5505 18.3437 35.5463 18.2944C35.544 18.2332 35.509 18.1486 35.4414 18.0405C35.3997 17.9973 35.3403 17.9512 35.2631 17.9023C35.1977 17.8553 35.1236 17.8252 35.0406 17.8118C34.9577 17.7984 34.8413 17.804 34.6915 17.8285C34.5555 17.843 34.4353 17.8723 34.331 17.9162C34.2404 17.9503 34.1447 17.9409 34.0438 17.8882C33.9547 17.8374 33.915 17.7823 33.9245 17.7231C33.9513 17.5573 33.8664 17.5557 33.67 17.7186C33.4874 17.8715 33.24 18.0868 32.9278 18.3647C32.6802 18.5436 32.4612 18.7332 32.2709 18.9335C32.0944 19.1238 32.0023 19.2427 31.9947 19.2901C31.9871 19.3375 31.9597 19.3938 31.9127 19.4592C31.8657 19.5245 31.8168 19.6017 31.766 19.6908C31.6934 19.7642 31.6004 19.889 31.4869 20.0652C31.3734 20.2414 31.26 20.4175 31.1465 20.5937C31.0468 20.76 30.9774 20.8886 30.9385 20.9796C30.9308 21.0269 30.9098 21.1573 30.8755 21.3705C30.843 21.5719 30.8125 21.7615 30.7839 21.9392C30.7514 22.1406 30.7335 22.2896 30.73 22.3863C30.7266 22.483 30.732 22.5629 30.7461 22.6259C30.7721 22.6909 30.8052 22.7874 30.8453 22.9154C30.8794 23.006 30.9342 23.1181 31.0099 23.2519C31.0994 23.3757 31.158 23.4641 31.1859 23.5172C31.2972 23.6567 31.3725 23.7175 31.4118 23.6995C31.4649 23.6716 31.6079 23.6521 31.8406 23.641ZM36.6135 27.8741C36.3922 27.8142 36.2229 27.6957 36.1055 27.5188C36 27.3438 35.9948 27.112 36.0899 26.8235C36.1831 26.5468 36.4181 26.22 36.7949 25.8431C36.9049 25.7636 37.0031 25.6822 37.0895 25.5989C37.1877 25.5175 37.2544 25.4431 37.2895 25.3759C37.3602 25.3143 37.5094 25.1804 37.7371 24.974C37.9767 24.7695 38.2507 24.5401 38.5591 24.2859C38.8812 24.0218 39.1964 23.7627 39.5048 23.5085C39.8131 23.2543 40.0724 23.0408 40.2826 22.8681C40.5065 22.6854 40.6331 22.5781 40.6626 22.5464C40.708 22.5659 40.7642 22.5567 40.8311 22.5189C40.8999 22.4692 40.9528 22.4048 40.9898 22.3257C41.0407 22.2366 41.1073 22.1623 41.1899 22.1027C41.2843 22.0449 41.362 22.0149 41.4232 22.0126C41.4564 21.9572 41.5005 21.9096 41.5556 21.8699C41.6224 21.832 41.6656 21.7904 41.6851 21.7449C41.7027 21.7112 41.7311 21.6854 41.7705 21.6675C41.8236 21.6396 41.8599 21.6029 41.8794 21.5574C41.9994 21.4916 42.2048 21.3485 42.4956 21.1279C42.7982 20.9093 43.1499 20.65 43.5508 20.3499C43.9535 20.038 44.3641 19.7152 44.7825 19.3815C45.2128 19.0497 45.6096 18.7369 45.973 18.4429C46.3482 18.1509 46.6547 17.9086 46.8923 17.7159C47.1319 17.5114 47.2605 17.3924 47.2781 17.3587C47.3503 17.2124 47.4764 17.1841 47.6564 17.2739C47.747 17.2398 47.8417 17.2551 47.9407 17.3197C47.9407 17.3197 47.9786 17.3865 48.0543 17.5203C48.1418 17.6559 48.2066 17.7818 48.2486 17.898C48.3025 18.0161 48.3209 18.1284 48.3037 18.2351C48.2984 18.3436 48.2585 18.4405 48.184 18.5257C48.1156 18.6484 48.0323 18.7505 47.9341 18.8319C47.8496 18.9033 47.7061 19.0018 47.5036 19.1271C47.3129 19.2544 47.0141 19.4494 46.6072 19.712C46.5109 19.7816 46.332 19.9108 46.0707 20.0996C45.8212 20.2903 45.551 20.496 45.2602 20.7165C44.9713 20.9252 44.7218 21.1159 44.5117 21.2887C44.3034 21.4496 44.1974 21.5419 44.1936 21.5656C44.1542 21.5836 44.0932 21.6224 44.0107 21.682C43.9419 21.7317 43.8575 21.8032 43.7574 21.8965C43.6492 21.9641 43.4723 22.0815 43.2266 22.2485C42.9947 22.4056 42.7824 22.5537 42.5898 22.6929C42.3972 22.832 42.2921 22.9184 42.2746 22.952C42.2471 22.9719 42.2186 22.9977 42.1892 23.0294C42.1597 23.0611 42.1076 23.0831 42.0327 23.0954C42.0109 23.0797 41.9784 23.0927 41.9352 23.1344C41.9058 23.1661 41.8911 23.1819 41.8911 23.1819C41.8835 23.2293 41.8158 23.3096 41.6882 23.4227C41.5606 23.5359 41.3946 23.6611 41.1901 23.7983C40.9643 23.9928 40.66 24.2598 40.2771 24.5992C39.8942 24.9387 39.4976 25.288 39.0872 25.6473C38.6887 26.0085 38.3383 26.3349 38.0361 26.6266C37.7319 26.93 37.5397 27.1422 37.4595 27.2629C37.3403 27.4747 37.1941 27.6274 37.021 27.721C36.8479 27.8147 36.7121 27.8657 36.6135 27.8741ZM43.0014 26.5879C43.2116 26.4152 43.3843 26.2485 43.5196 26.088C43.6686 25.9175 43.8143 25.6919 43.9568 25.4109C44.0134 25.2864 44.0588 25.1174 44.0932 24.9042C44.1275 24.6909 44.1239 24.5627 44.0822 24.5195C43.9951 24.4569 43.8785 24.4259 43.7325 24.4267C43.6003 24.4176 43.4517 24.4726 43.2866 24.5919C43.0073 24.7414 42.7539 24.9558 42.5266 25.2352C42.3111 25.5165 42.0839 25.8324 41.8451 26.1828C41.6828 26.4362 41.6169 26.6566 41.6475 26.8438C41.6918 27.0211 41.8304 27.1042 42.0631 27.0931C42.2978 27.0702 42.6105 26.9018 43.0014 26.5879ZM41.1914 28.4295C41.073 28.4104 40.9761 28.3705 40.9008 28.3097C40.8255 28.249 40.7481 28.1636 40.6686 28.0535C40.5096 27.8334 40.3899 27.5953 40.3096 27.3393C40.2274 27.0951 40.2175 26.893 40.2797 26.7328C40.3168 26.6537 40.3342 26.5836 40.3318 26.5224C40.3433 26.4514 40.349 26.4158 40.349 26.4158C40.3112 26.3489 40.3051 26.3115 40.3307 26.3035C40.3563 26.2954 40.3779 26.2746 40.3954 26.241C40.4547 26.2505 40.482 26.1941 40.4774 26.0719C40.477 25.9989 40.5452 25.8397 40.682 25.5943C40.8325 25.339 40.9979 25.1043 41.1783 24.8903C41.2528 24.8051 41.3733 24.6604 41.5399 24.4563C41.7183 24.2541 41.9027 24.0529 42.093 23.8526C42.2951 23.6542 42.4631 23.5172 42.5968 23.4415C42.88 23.2684 43.1358 23.1516 43.3643 23.0911C43.5947 23.0189 43.8263 22.9772 44.0591 22.9661C44.2937 22.9431 44.4525 22.9383 44.5354 22.9517C44.6183 22.965 44.7175 23.0661 44.833 23.2549C45.0447 23.3741 45.2322 23.5684 45.3954 23.8378C45.5705 24.1091 45.6479 24.3829 45.6277 24.6592C45.6037 24.9592 45.5256 25.293 45.3934 25.6607C45.2631 26.0165 44.9636 26.4422 44.4948 26.938C44.1906 27.2414 43.9147 27.4826 43.6671 27.6615C43.4195 27.8404 43.1461 27.9908 42.8469 28.1128C42.6245 28.2106 42.3497 28.294 42.0226 28.3628C41.6955 28.4317 41.4184 28.4539 41.1914 28.4295ZM41.4721 19.5592C41.6822 19.3864 41.8609 19.2207 42.008 19.0621C42.157 18.8916 42.2968 18.665 42.4275 18.3822C42.4959 18.2595 42.5473 18.0915 42.5816 17.8783C42.616 17.665 42.6064 17.5358 42.5529 17.4908C42.4776 17.43 42.367 17.4 42.221 17.4008C42.0887 17.3917 41.9401 17.4467 41.775 17.566C41.4838 17.7135 41.2246 17.927 40.9972 18.2064C40.7817 18.4877 40.5546 18.8036 40.3158 19.1541C40.1653 19.4094 40.1053 19.6306 40.1359 19.8179C40.1803 19.9952 40.3129 20.0774 40.5338 20.0643C40.7684 20.0414 41.0812 19.873 41.4721 19.5592ZM39.665 21.3829C39.5465 21.3638 39.4496 21.3239 39.3743 21.2631C39.299 21.2024 39.2216 21.117 39.1421 21.0069C38.9831 20.7868 38.8625 20.5547 38.7803 20.3105C38.6981 20.0663 38.6881 19.8642 38.7504 19.704C38.7874 19.6249 38.8048 19.5548 38.8025 19.4936C38.814 19.4226 38.8197 19.387 38.8197 19.387C38.7818 19.3202 38.7757 19.2827 38.8013 19.2747C38.8269 19.2666 38.8485 19.2458 38.8661 19.2122C38.9253 19.2217 38.9527 19.1654 38.948 19.0431C38.9477 18.9701 39.0158 18.8109 39.1526 18.5655C39.3031 18.3102 39.4686 18.0755 39.6489 17.8615C39.7234 17.7763 39.844 17.6316 40.0106 17.4275C40.1909 17.2135 40.3762 17.0063 40.5665 16.806C40.7687 16.6077 40.9366 16.4706 41.0703 16.395C41.3535 16.2218 41.6093 16.105 41.8378 16.0446C42.0664 15.9842 42.297 15.9484 42.5297 15.9373C42.7644 15.9143 42.9231 15.9095 43.0061 15.9229C43.089 15.9362 43.1882 16.0373 43.3036 16.2261C43.5154 16.3453 43.7028 16.5396 43.8661 16.809C44.0431 17.0684 44.1214 17.3363 44.1012 17.6126C44.0772 17.9126 43.9991 18.2464 43.8669 18.6141C43.7367 18.9699 43.4371 19.3957 42.9683 19.8914C42.6641 20.1949 42.3873 20.442 42.1378 20.6327C41.8902 20.8116 41.6168 20.962 41.3175 21.084C41.0951 21.1819 40.8204 21.2652 40.4933 21.334C40.1681 21.391 39.892 21.4073 39.665 21.3829ZM53.8864 30.1833C53.6827 30.0897 53.5195 30.0087 53.3968 29.9403C53.2723 29.8838 53.21 29.8555 53.21 29.8555C53.2432 29.8001 53.2399 29.7449 53.2002 29.6899C53.1723 29.6368 53.0941 29.5938 52.9657 29.5609C52.8071 29.4138 52.6502 29.2184 52.495 28.9746C52.3398 28.7308 52.2093 28.4849 52.1034 28.2369C51.9975 27.9889 51.9294 27.8077 51.8992 27.6935C51.8449 27.5024 51.868 27.3967 51.9685 27.3765C52.0709 27.3444 52.1921 27.3092 52.3319 27.2709C52.4775 27.1972 52.6252 27.148 52.775 27.1236C52.9367 27.101 53.0487 27.198 53.111 27.4147C53.2211 27.712 53.4208 27.9812 53.7101 28.2223C54.0113 28.4653 54.3664 28.638 54.7753 28.7403C55.1961 28.8446 55.634 28.8422 56.0892 28.7333C56.3945 28.6488 56.5771 28.4959 56.6371 28.2746C56.699 28.0415 56.654 27.7547 56.5023 27.4142C56.482 27.3137 56.4411 27.2281 56.3795 27.1574C56.3298 27.0886 56.2475 26.9963 56.1324 26.8806C56.0292 26.7667 55.8823 26.585 55.6915 26.3355C55.5272 26.2239 55.3737 26.1202 55.2312 26.0243C55.1005 25.9303 54.9589 25.8285 54.8064 25.7188C54.6321 25.5935 54.4398 25.4288 54.2296 25.2248C54.0213 25.0089 53.8327 24.784 53.6637 24.5502C53.4967 24.3045 53.3751 24.0782 53.299 23.8715C53.1381 23.6632 53.0588 23.4013 53.061 23.0856C53.0652 22.7581 53.1255 22.4214 53.242 22.0756C53.3704 21.7316 53.5344 21.4299 53.7343 21.1703C53.8321 21.0159 53.9968 20.8237 54.2283 20.5936C54.4618 20.3516 54.7199 20.1076 55.0026 19.8614C55.2854 19.6153 55.5515 19.3968 55.8011 19.2061C56.0643 19.0054 56.2678 18.8741 56.4115 18.8122C56.5215 18.7327 56.6375 18.6541 56.7594 18.5765C56.8832 18.4871 56.9451 18.4424 56.9451 18.4424C56.9665 18.3851 56.9891 18.3583 57.0128 18.3621C57.0483 18.3678 57.0661 18.3707 57.0661 18.3707C57.131 18.3447 57.2709 18.3065 57.4857 18.256C57.7004 18.2055 57.9444 18.0868 58.2176 17.8999C59.0725 17.6487 59.7888 17.5028 60.3666 17.4622C60.9463 17.4097 61.3961 17.4093 61.716 17.4608C62.0103 17.5204 62.2872 17.6501 62.5467 17.8499C62.8081 18.0379 63.0214 18.2607 63.1865 18.5182C63.3635 18.7777 63.4469 19.0524 63.4366 19.3425C63.4737 19.6402 63.3769 19.9771 63.1461 20.3532C62.9291 20.7193 62.6498 21.0572 62.3082 21.3668C61.9804 21.6664 61.655 21.8753 61.3321 21.9935C60.9775 22.0822 60.6903 22.0541 60.4705 21.9093C60.2626 21.7665 60.1827 21.5834 60.2308 21.3602C60.2461 21.2654 60.2938 21.1577 60.3741 21.0369C60.4661 20.918 60.687 20.7166 61.0366 20.4326C61.5055 19.9369 61.7708 19.5724 61.8327 19.3393C61.8946 19.1062 61.8099 18.9528 61.5787 18.879C61.5114 18.8439 61.3742 18.8279 61.1671 18.831C60.9599 18.834 60.7331 18.8461 60.4866 18.8672C60.2539 18.8783 60.0439 18.8992 59.8567 18.9298C59.6813 18.9623 59.5917 18.9904 59.5878 19.0141C59.5878 19.0141 59.585 19.0318 59.5792 19.0674C59.5735 19.1029 59.5479 19.1109 59.5024 19.0915C59.4787 19.0876 59.3891 19.1157 59.2336 19.1758C59.0918 19.2259 58.9166 19.2949 58.708 19.3828C58.4993 19.4707 58.2897 19.5646 58.0792 19.6643C57.8824 19.7542 57.7112 19.836 57.5656 19.9098C57.42 19.9836 57.3394 20.0313 57.3237 20.0531C57.279 20.1796 57.1237 20.2761 56.8577 20.3427C56.5979 20.4467 56.3581 20.6147 56.1384 20.8467C55.9187 21.0787 55.6579 21.377 55.356 21.7416C55.1107 21.9816 54.9209 22.2549 54.7864 22.5614C54.6538 22.8561 54.6137 23.1049 54.6661 23.3078C54.6948 23.5069 54.8242 23.7222 55.0543 23.9538C55.2981 24.1754 55.6291 24.4597 56.0473 24.8066C56.4138 25.0966 56.7547 25.3946 57.0701 25.7007C57.3854 26.0067 57.6484 26.2983 57.859 26.5753C58.0715 26.8405 58.2009 27.0558 58.2472 27.2213C58.3569 27.4456 58.4026 27.69 58.3843 27.9545C58.3778 28.2208 58.3368 28.4755 58.2611 28.7186C58.1993 28.9517 58.1322 29.1415 58.06 29.2878C57.9466 29.464 57.7838 29.6444 57.5717 29.8291C57.3715 30.0156 57.2013 30.0915 57.061 30.0567C56.9249 30.0713 56.8176 30.0965 56.7388 30.1324C56.672 30.1703 56.5942 30.2003 56.5056 30.2225C56.415 30.2565 56.2109 30.2783 55.8933 30.2879C55.5739 30.3094 55.2276 30.3083 54.8546 30.2846C54.4797 30.2728 54.157 30.2391 53.8864 30.1833ZM60.2343 29.6382C60.2022 29.5358 60.1108 29.4238 59.9603 29.3023C59.8215 29.1827 59.756 29.0992 59.7636 29.0518C59.7712 29.0045 59.7531 28.9286 59.7091 28.8243C59.6789 28.71 59.6439 28.6254 59.6042 28.5704C59.5564 28.4897 59.6018 28.3208 59.7405 28.0636C59.8811 27.7945 60.0786 27.4739 60.3331 27.1016C60.5875 26.7293 60.8607 26.354 61.1526 25.9756C61.2627 25.8961 61.3775 25.787 61.4971 25.6483C61.6167 25.5095 61.704 25.4203 61.759 25.3805C61.7667 25.3331 61.7911 25.2945 61.8324 25.2647C61.8756 25.2231 61.9209 25.206 61.9682 25.2137L62.1562 24.9523C62.1876 24.9087 62.2739 24.8254 62.4153 24.7023C62.5685 24.5811 62.7473 24.4519 62.9518 24.3147C63.1581 24.1656 63.3626 24.0284 63.5651 23.903C63.7794 23.7795 63.9516 23.6918 64.0815 23.6398C64.357 23.5141 64.6242 23.4781 64.8829 23.5319C65.1535 23.5877 65.3711 23.7078 65.5359 23.8924C65.5657 23.9337 65.6312 24.0172 65.7325 24.1429C65.8457 24.2705 65.9687 24.4119 66.1018 24.567C66.2466 24.7241 66.3697 24.8654 66.471 24.9911L67.034 25.6835L66.5887 26.5234C66.3584 26.9725 66.2501 27.3804 66.2639 27.7473C66.2777 28.1142 66.3406 28.4403 66.4526 28.7258C66.4909 28.8657 66.5517 28.9788 66.635 29.0651C66.7302 29.1534 66.8588 29.2227 67.0208 29.2731C67.1137 29.3003 67.1968 29.3501 67.2702 29.4227C67.3436 29.4953 67.3698 29.5968 67.3488 29.7271C67.303 30.0114 67.2162 30.2102 67.0886 30.3233C66.9747 30.4265 66.8567 30.4804 66.7344 30.485C66.3358 30.4694 65.9693 30.3678 65.6349 30.1802C65.3004 29.9926 65.035 29.6034 64.8385 29.0127C64.8025 28.9339 64.7584 28.7931 64.706 28.5902C64.6673 28.3773 64.6469 28.2403 64.6446 28.1792C64.5876 28.2308 64.5101 28.2973 64.4119 28.3787C64.3274 28.4502 64.2439 28.5158 64.1614 28.5754C63.1828 29.2928 62.3704 29.7332 61.7242 29.8965C61.0917 30.0498 60.5951 29.9637 60.2343 29.6382ZM61.4494 28.3207C61.5304 28.3459 61.6674 28.3255 61.8604 28.2593C62.0553 28.1813 62.3199 28.0477 62.6542 27.8585C63.1124 27.5798 63.4899 27.3489 63.7868 27.1658C64.0838 26.9827 64.3852 26.7335 64.6913 26.4182L65.1853 25.8415C65.1108 25.5499 65.0328 25.355 64.9514 25.2568C64.87 25.1586 64.7819 25.1019 64.6871 25.0866C64.5331 25.0618 64.3332 25.1329 64.0875 25.2999C63.8437 25.4551 63.555 25.7003 63.2215 26.0355C62.9016 26.3608 62.531 26.7751 62.1096 27.2785C61.9136 27.5143 61.7541 27.7499 61.631 27.9853C61.5099 28.2089 61.4494 28.3207 61.4494 28.3207ZM68.8872 30.449C68.8157 30.3646 68.7375 30.1332 68.6526 29.7549C68.5795 29.3784 68.516 28.9428 68.4621 28.4479C68.42 27.9549 68.3958 27.5013 68.3896 27.0871C68.3804 26.8425 68.3596 26.6325 68.3271 26.4571C68.3064 26.2836 68.2869 26.1407 68.2685 26.0283C68.2436 25.8055 68.2977 25.5833 68.4306 25.3616C68.5754 25.1418 68.7256 25.0019 68.8811 24.9419C68.9461 24.9159 69.0565 24.9094 69.2125 24.9224C69.3821 24.9254 69.4897 24.9367 69.5352 24.9562C69.6697 25.0265 69.7647 25.2666 69.8202 25.6767C69.8776 26.0749 69.9031 26.5956 69.8967 27.2387C69.8849 27.6136 69.8765 27.8918 69.8716 28.0734C69.8804 28.245 69.881 28.3544 69.8734 28.4018C69.9055 28.5042 69.916 28.6275 69.905 28.7716C69.9077 28.9057 69.964 28.933 70.0741 28.8535C70.1291 28.8138 70.2136 28.7423 70.3274 28.6391C70.4531 28.5378 70.6023 28.4038 70.7751 28.2372C71.0773 27.9455 71.3167 27.7046 71.4932 27.5142C71.6835 27.3139 71.8925 27.1106 72.1202 26.9042C72.2223 26.7991 72.3558 26.6869 72.5209 26.5676C72.6859 26.4484 72.8491 26.341 73.0104 26.2454C73.1735 26.138 73.3044 26.0801 73.403 26.0717C73.695 26.0701 73.8496 26.2044 73.8668 26.4746C73.8978 26.7348 73.7681 27.0117 73.4777 27.3052C73.36 27.4321 73.2611 27.556 73.1808 27.6767C73.1144 27.7876 73.0536 27.8629 72.9986 27.9026C72.8733 28.0769 72.686 28.2959 72.4369 28.5596C72.1897 28.8115 71.9513 29.0466 71.7216 29.2648C71.4939 29.4712 71.3388 29.6043 71.2562 29.6639C71.2012 29.7036 71.0803 29.7753 70.8934 29.8789C70.7184 29.9844 70.5436 30.1264 70.3689 30.3049C70.0407 30.5316 69.7415 30.6535 69.4713 30.6708C69.2011 30.688 69.0064 30.6141 68.8872 30.449ZM74.9579 32.7217C74.3063 32.6167 73.8334 32.346 73.539 31.9096C73.2565 31.4752 73.1783 30.867 73.3043 30.0851C73.373 29.6586 73.5254 29.203 73.7615 28.7184C74.0095 28.2357 74.3029 27.7725 74.6418 27.3287C74.9925 26.8869 75.3565 26.514 75.7336 26.2102C76.1127 25.8944 76.4736 25.6913 76.8164 25.6007C76.9444 25.5605 77.0755 25.5391 77.2096 25.5364C77.3575 25.5238 77.4966 25.5279 77.6269 25.5489C77.7691 25.5718 77.9212 25.6085 78.0832 25.6589C78.259 25.6994 78.4192 25.7617 78.5637 25.8457C78.8228 25.9726 79.0339 26.1707 79.1972 26.4401C79.3722 26.7114 79.4235 27.0721 79.351 27.5223C79.3319 27.6408 79.299 27.7692 79.2524 27.9076C79.2077 28.0341 79.1453 28.1577 79.065 28.2785C78.848 28.6446 78.551 28.9796 78.1738 29.2835C77.8085 29.5893 77.4426 29.7856 77.0762 29.8724C76.9737 29.9045 76.8732 29.9248 76.7746 29.9332C76.6898 29.9317 76.6 29.9233 76.5052 29.908C76.2564 29.8679 76.0371 29.7961 75.8471 29.6926C75.669 29.5909 75.5066 29.4675 75.3598 29.3223L75.2377 29.175L75.1202 29.3384C75.001 29.5502 74.9112 29.7302 74.8508 29.8784C74.8023 30.0286 74.7724 30.1393 74.7609 30.2104C74.738 30.3525 74.7201 30.5016 74.7071 30.6575C74.696 30.8016 74.7125 30.9258 74.7564 31.0301C74.7943 31.097 74.8459 31.1539 74.9112 31.2009C74.9884 31.2498 75.0863 31.2838 75.2048 31.3029C75.2758 31.3143 75.341 31.3248 75.4002 31.3344C75.4732 31.334 75.5344 31.3317 75.5837 31.3275C75.8046 31.3145 75.9887 31.2651 76.1362 31.1795C76.2975 31.0839 76.4618 31.0071 76.6292 30.949L76.706 30.9249L76.6968 30.8687C76.9154 30.7945 77.0621 30.7513 77.137 30.7391C77.2139 30.715 77.2719 30.694 77.3113 30.676C77.3663 30.6363 77.4235 30.6212 77.4827 30.6307C77.6524 30.6337 77.8047 30.7069 77.9396 30.8502C78.0883 30.9835 78.1493 31.1331 78.1225 31.299C78.1111 31.3701 78.0396 31.474 77.9082 31.6109C77.7886 31.7496 77.6394 31.8836 77.4606 32.0128C77.2955 32.132 77.1293 32.2207 76.9619 32.2788C76.9244 32.285 76.886 32.297 76.8467 32.315C76.8092 32.3211 76.7708 32.3331 76.7314 32.3511L76.7492 32.354C76.6197 32.479 76.5016 32.5329 76.395 32.5157L76.2528 32.4928C76.1921 32.5681 76.0237 32.6321 75.7478 32.6849C75.47 32.7495 75.2067 32.7618 74.9579 32.7217ZM76.5721 28.5878C76.6787 28.605 76.7763 28.6025 76.865 28.5803C76.9655 28.5601 77.061 28.5329 77.1516 28.4989C77.4684 28.3433 77.694 28.1122 77.8285 27.8057C77.963 27.4992 77.9725 27.2516 77.857 27.0628C77.8391 27.0235 77.8133 26.995 77.7796 26.9774C77.7479 26.948 77.7084 26.9295 77.661 26.9218C77.5306 26.9008 77.3759 26.9184 77.1967 26.9746C77.0293 27.0328 76.8562 27.1264 76.6773 27.2556C76.4985 27.3848 76.3268 27.5455 76.1621 27.7378L75.8709 28.0737C75.8965 28.0657 75.9153 28.0627 75.9271 28.0646C75.9527 28.0565 75.9714 28.0535 75.9833 28.0554C76.0899 28.0726 76.1553 28.1196 76.1793 28.1964C76.2034 28.2732 76.2334 28.3509 76.2694 28.4297C76.3172 28.5103 76.4181 28.563 76.5721 28.5878Z" fill="#236BFF"/>
</svg>
