<svg width="177" height="33" viewBox="0 0 177 33" fill="none" xmlns="http://www.w3.org/2000/svg">
<path d="M84.9147 2.35742L79.7031 31.8408L86.2229 31.8418L89.0145 9.042H89.3091L91.9816 31.8397L98.4768 31.8408L93.2652 2.36093L84.9147 2.35742Z" fill="#C9D4E4"/>
<path d="M144.025 16.8365V17.2889L147.571 31.8119H154.021L150.229 19.0109V18.9267L150.373 18.811C152.113 17.3801 153.105 14.7427 153.105 11.4987V10.9936C153.105 8.3212 152.274 6.08716 150.703 4.53701C149.24 3.09909 147.301 2.34506 144.969 2.35558H136.867V31.8119H142.289L143.085 31.7916V7.22346L143.089 7.16735H144.078C146.403 7.16735 146.87 9.57325 146.915 11.2672C146.915 11.2952 146.919 11.5197 146.919 11.7371C146.919 11.916 146.922 12.165 146.922 12.165C146.922 12.3228 146.919 12.5648 146.908 12.7121C146.792 15.5494 145.551 16.5489 144.59 16.7348C144.586 16.7348 144.562 16.7418 144.558 16.7418L144.025 16.8365Z" fill="#C9D4E4"/>
<path d="M61.7576 9.66411V10.0569C61.7576 14.6618 64.5633 16.9835 67.134 19.0632L67.8109 19.6103C70.066 21.4656 71.3812 23.3244 71.3812 24.81V24.9198C71.3812 27.0346 70.4904 27.5059 69.568 27.5059C68.6982 27.5059 67.6917 26.6042 67.6917 24.7749C67.6917 24.7749 67.6917 22.5928 67.6917 22.5661C67.6601 22.5661 61.5472 22.5661 61.5156 22.5661C61.5156 22.5928 61.5156 24.5031 61.5156 24.5031C61.5156 29.2258 64.7527 32.3977 69.568 32.3977C74.7235 32.3977 77.7852 29.5239 77.7852 24.6767V24.4161C77.7852 19.7261 75.737 17.9094 72.4964 15.1177L71.9844 14.6793C71.9809 14.6758 71.0515 13.8937 71.0515 13.8937C69.4347 12.5435 68.1686 11.3019 68.1686 9.67814V9.51681C68.1686 8.626 68.4597 7.03376 69.9959 7.03376C71.4162 7.03376 71.7424 8.87501 71.7424 9.82193C71.7424 9.82193 71.7424 11.7789 71.7424 11.8035C71.7705 11.8035 77.7185 11.8035 77.7431 11.8035C77.7431 11.7789 77.7431 9.78335 77.7431 9.78335C77.7431 4.92598 74.7024 1.78711 69.9959 1.78711C66.0258 1.78711 61.7576 4.25261 61.7576 9.66411Z" fill="#C9D4E4"/>
<path d="M97.7031 2.35742V7.46029C97.7031 7.46029 101.578 7.46029 102.382 7.46029C102.382 8.45281 102.382 31.8138 102.382 31.8138H108.698V7.46029H112.71V2.35742H97.7031Z" fill="#C9D4E4"/>
<path d="M126.082 2.35742V24.6943C126.082 26.9343 124.893 27.2345 124.269 27.2345C123.189 27.2345 122.459 26.344 122.459 24.6943V2.35742H116.164V25.4076C116.164 29.6393 119.345 32.3703 124.269 32.3703C129.193 32.3703 132.378 29.6393 132.378 25.4076V2.35742H126.082Z" fill="#C9D4E4"/>
<path d="M170.092 2.35742L170.421 23.4514H170.264L165.473 2.35742H157.203V31.8408H163.488L162.983 10.6658H163.141L168.016 31.8383L176.205 31.8408V2.35742H170.092Z" fill="#C9D4E4"/>
<path d="M44.8868 14.7698C44.8903 14.8048 44.9394 15.3379 44.9569 15.7167C44.971 15.9797 44.9569 16.3901 44.9569 16.4146C44.9639 16.4146 45.0236 16.4672 45.0271 16.4707C48.3483 19.1923 51.873 22.9067 52.4797 25.6345C52.6481 26.3899 52.6095 27.0717 52.3114 27.6546C51.9571 28.3367 51.2908 28.8253 50.3719 29.1392C45.6128 30.7651 34.2637 27.6458 25.0014 23.0697C18.3834 19.799 12.5756 15.9026 8.64556 12.0938C4.99289 8.55164 4.00388 5.78803 4.9473 4.12215C5.30607 3.49087 5.92403 3.02441 6.75136 2.70526C9.7724 1.52687 15.563 2.35104 21.2628 4.052C18.5658 6.06509 16.686 8.78312 15.8159 11.5011C15.8159 11.5046 15.8127 11.5152 15.8127 11.5152C15.8127 11.5187 15.8106 11.5292 15.8106 11.5292C15.5437 14.0193 19.148 17.2739 22.7884 19.0905C22.7849 19.0765 22.9848 19.1642 22.9848 19.1502C22.9813 19.1361 22.9497 18.8977 22.9462 18.8871C22.094 12.7006 26.7795 3.44176 31.7035 1.41113C32.0191 1.28137 32.2927 1.20422 32.3313 1.19019C32.2997 1.18668 31.7281 1.13056 31.6965 1.12706C31.5246 1.11303 31.3528 1.099 31.1669 1.09199C30.967 1.08146 30.7566 1.07445 30.5321 1.07095C27.502 1.02886 24.8401 1.8355 22.6236 3.14365C13.1108 -0.121479 6.14463 -0.503752 3.23336 0.467721C2.07671 0.857011 1.29392 1.4427 0.907789 2.21778C0.502014 3.03143 0.499209 4.05551 0.901125 5.25494C2.22647 9.21799 8.01568 14.633 15.3491 19.4413C16.4124 25.0393 21.4311 30.7815 28.6137 31.5454C28.6278 31.5464 28.9259 31.5784 28.9434 31.5798C28.9364 31.5742 29.0661 31.5826 29.0591 31.5784C29.0381 31.5594 28.6804 31.289 28.6593 31.2732C26.4358 29.5621 24.4402 26.741 23.7564 24.2934C23.9001 24.3667 24.0439 24.4379 24.1877 24.5112C24.3 24.5676 24.4087 24.622 24.5209 24.6764C36.1155 30.4077 48.2817 33.3295 53.6651 31.5282C54.8716 31.1252 55.7589 30.5567 56.1657 29.742C56.555 28.9628 56.4883 27.9306 56.0991 26.7705C55.0855 23.7456 50.7402 19.1326 45.2235 15.0188C45.2059 15.0047 44.9078 14.7803 44.8868 14.7698Z" fill="#C9D4E4"/>
</svg>
