<svg width="278" height="38" viewBox="0 0 278 38" fill="none" xmlns="http://www.w3.org/2000/svg">
<path fill-rule="evenodd" clip-rule="evenodd" d="M242.562 13.5831L242.646 13.0558C242.687 12.8442 242.627 12.6232 242.491 12.4559C242.351 12.2917 242.147 12.1938 241.933 12.1938H238.145C237.794 12.1891 237.488 12.4369 237.422 12.7842L237.316 13.3573L233.269 35.4795C233.233 35.6926 233.297 35.9152 233.44 36.081C233.583 36.2452 233.801 36.343 234.019 36.3383L235.888 36.3099H237.644C237.995 36.3099 238.287 36.0652 238.356 35.7289L241.132 21.9991C242.049 18.5196 244.354 17.484 246.393 17.1825C246.502 17.1683 246.914 17.1746 247.001 17.1177C245.604 25.4422 243.95 35.298 243.921 35.4621C243.885 35.6705 243.947 35.8868 244.084 36.0526C244.221 36.2152 244.428 36.3099 244.636 36.3099H248.716C249.034 36.3099 249.318 36.1062 249.409 35.7984C249.54 35.3974 250.516 29.741 251.101 26.3436C252.612 28.6343 257.435 35.9752 257.435 35.9752C257.571 36.1804 257.8 36.302 258.044 36.302L262.92 36.3099C263.008 36.3099 263.089 36.2894 263.171 36.2625C263.275 36.3099 263.39 36.3415 263.504 36.3383L267.62 36.3099C267.975 36.3083 268.274 36.0526 268.332 35.71C268.332 35.71 271.313 18.4865 271.509 17.3561C272.467 17.3546 276.235 17.3498 276.235 17.3498C276.588 17.3498 276.891 17.0941 276.953 16.7452L277.589 13.0416C277.597 13.0005 277.602 12.9626 277.602 12.9184C277.602 12.7511 277.54 12.5837 277.433 12.4527C277.294 12.2885 277.09 12.1938 276.871 12.1938H272.216C272.444 10.8851 273.272 6.05586 273.272 6.05586C273.277 6.01323 273.282 5.97219 273.282 5.93272C273.282 5.75749 273.223 5.59172 273.111 5.46227C272.975 5.29493 272.767 5.20337 272.556 5.20337H268.465C268.111 5.20337 267.808 5.45911 267.746 5.80643C267.746 5.80643 266.836 11.204 266.667 12.1938C266.297 12.2049 265.915 12.2128 265.915 12.2128L265.278 12.2175L264.601 12.2049C264.34 12.1985 264.108 12.3327 263.973 12.5427C263.842 12.3422 263.621 12.2128 263.373 12.2128L259.627 12.2049H258.53C258.327 12.2049 258.136 12.2917 257.994 12.4385C257.994 12.4385 254.226 16.7578 252.225 18.9254C252.811 15.4917 254.425 6.06533 254.425 6.06533C254.43 6.02113 254.435 5.98324 254.435 5.93904C254.435 5.77012 254.373 5.60278 254.261 5.47332C254.124 5.30598 253.92 5.21284 253.705 5.21284L249.63 5.20337C249.272 5.20179 248.966 5.45596 248.907 5.80485C248.813 6.36686 248.39 8.8754 247.823 12.2175C247.817 12.2064 247.812 12.1985 247.804 12.1891C247.66 12.0202 247.452 11.9317 247.231 11.9396C245.495 11.9902 243.928 12.7021 242.562 13.5831ZM262.977 34.2939C261.299 31.5975 256.397 23.7262 255.966 23.0315C256.532 22.3622 262.5 15.0891 263.712 13.6652L263.176 16.4847C263.134 16.6994 263.194 16.9204 263.333 17.0846C263.472 17.2504 263.676 17.3498 263.895 17.3498H265.755C265.543 18.6349 263.598 30.4861 262.977 34.2939ZM123.045 24.8786C122.195 27.8497 119.382 30.6771 116.637 31.3433C114.538 31.6212 112.998 31.4238 111.924 30.7292C110.794 29.9525 110.228 28.6043 109.789 27.3871C109.713 26.9514 109.674 26.5125 109.674 26.0847C109.674 23.3788 111.121 20.7708 113.784 18.7738C115.315 17.7019 117.393 17.2977 119.218 17.7161C120.247 17.9529 121.655 18.5654 122.534 20.1567C123.027 21.0203 123.289 22.1143 123.289 23.1815C123.289 23.7719 123.206 24.3513 123.045 24.8786ZM102.295 5.78275L101.414 10.5662C101.373 10.7793 101.432 11.0019 101.571 11.174C101.709 11.3382 101.915 11.436 102.137 11.436H106.394C106.744 11.436 107.049 11.1866 107.112 10.8361L107.912 6.09533C107.947 5.88378 107.89 5.66119 107.754 5.49542C107.616 5.32966 107.41 5.23178 107.199 5.2302L103.015 5.19547C102.664 5.19232 102.363 5.44175 102.295 5.78275ZM93.0996 24.8786C93.259 24.3513 93.3363 23.7719 93.3363 23.1815C93.3363 22.1143 93.0775 21.0203 92.5866 20.1567C91.7027 18.5654 90.2964 17.9529 89.2658 17.7161C87.446 17.2977 85.3625 17.7019 83.8315 18.7738C81.1736 20.7708 79.7215 23.3788 79.7215 26.0847C79.7215 26.5125 79.7626 26.9514 79.8383 27.3871C80.2771 28.6043 80.8437 29.9525 81.9754 30.7292C83.0487 31.4238 84.5907 31.6212 86.6868 31.3433C89.4331 30.6771 92.2425 27.8497 93.0996 24.8786ZM58.1803 21.4655C59.9228 21.4497 68.2675 21.3707 69.4686 21.3597C69.3818 20.5514 68.9557 19.7936 68.0639 18.9001C67.079 18.0571 65.7295 17.6608 63.8134 17.6498C61.7379 17.9402 59.3136 19.3058 58.1803 21.4655ZM229.252 24.8786C228.403 27.8497 225.592 30.6771 222.844 31.3433C220.743 31.6212 219.203 31.4238 218.136 30.7292C217.003 29.9525 216.434 28.6043 215.996 27.3871C215.923 26.9514 215.879 26.5125 215.879 26.0847C215.879 23.3788 217.328 20.7708 219.994 18.7738C221.52 17.7019 223.603 17.2977 225.426 17.7161C226.454 17.9529 227.865 18.5654 228.742 20.1567C229.23 21.0203 229.494 22.1143 229.494 23.1815C229.494 23.7719 229.413 24.3513 229.252 24.8786ZM0.210938 35.9357V35.4827C0.233034 35.4353 0.261444 35.3895 0.297746 35.3501L30.6288 0.385201C30.7345 0.268377 30.8829 0.198915 31.0439 0.198915H35.9415C36.1025 0.198915 36.2571 0.273114 36.3629 0.399409C36.4418 0.497288 36.4876 0.625162 36.4876 0.743564C36.4876 0.778295 36.4797 0.819341 36.4734 0.855651C36.4734 0.855651 32.6743 19.6216 31.9688 23.0157C34.36 20.313 52.0153 0.385201 52.0153 0.385201C52.1163 0.263641 52.2678 0.198915 52.4209 0.198915H57.0297C57.1986 0.198915 57.358 0.274692 57.4622 0.407302C57.5648 0.539912 57.6026 0.715147 57.56 0.876174L52.7224 20.5214C52.7619 20.4488 52.7966 20.3777 52.8329 20.3083C55.1357 15.8295 59.5109 12.6816 64.2459 12.1022C64.2601 12.0991 64.279 12.0991 64.298 12.0991C68.58 11.8812 71.8851 13.5025 73.8675 16.7768C73.8785 16.7941 73.8864 16.8099 73.899 16.8288C74.6109 18.2591 75.1412 20.1804 75.2359 22.1585C76.044 19.7999 77.4803 17.6182 79.4769 15.7774C82.8609 12.6295 86.9867 11.3903 91.0998 12.2933C91.1424 12.3027 91.1929 12.3201 91.2355 12.3375L91.6175 12.5017C92.5298 12.8947 93.5226 13.3305 94.3623 14.0835C94.8074 11.9902 96.1111 5.78275 96.1111 5.78275C96.1837 5.44648 96.482 5.20337 96.8276 5.20337H100.609C100.829 5.20337 101.034 5.30124 101.173 5.46385C101.312 5.63119 101.37 5.85221 101.332 6.06533L95.8159 35.8158C95.7496 36.1631 95.4482 36.4125 95.0946 36.4125L91.3429 36.4015C91.1235 36.4015 90.9152 36.3099 90.7763 36.1441C90.6658 36.0115 90.6074 35.8458 90.6074 35.6768C90.6074 35.6311 90.6121 35.5853 90.6216 35.5427C90.6216 35.5427 90.7163 35.0438 90.7763 34.7138C87.7174 36.602 84.6207 37.3376 81.7197 36.8119C78.402 36.152 75.3132 32.9078 74.6914 29.4315C74.5209 28.5001 74.4451 27.5671 74.4546 26.6483C74.3236 26.7667 74.15 26.8377 73.9637 26.8377C73.9637 26.8377 57.369 26.8441 56.5436 26.8456C56.5246 26.9167 56.5136 26.9814 56.5136 27.0572C56.5136 27.324 56.6051 27.6697 56.7251 28.0644C56.7251 28.0644 56.7756 28.2444 56.7993 28.3217C57.6263 30.3535 59.6103 31.6275 61.861 31.5738C64.0991 31.5233 66.173 30.4514 68.015 28.3912C68.1507 28.2349 68.3512 28.1465 68.5563 28.1465H72.4406C72.6916 28.1465 72.9268 28.2759 73.0578 28.4891C73.1935 28.7006 73.2109 28.9674 73.1051 29.1932C70.9002 33.8298 65.9552 36.9445 60.7656 36.9445C57.156 36.804 54.1256 35.0469 52.4383 32.109C51.5986 30.5429 51.2009 28.5996 51.2246 26.6104L48.9454 35.8663C48.8839 36.1157 48.6613 36.2862 48.4104 36.2862H43.497C43.3313 36.2862 43.1719 36.2089 43.0708 36.0763C42.9903 35.9768 42.9493 35.8568 42.9493 35.7384C42.9493 35.6926 42.9556 35.6532 42.9635 35.6105C44.8828 27.6192 47.5739 16.2605 48.5508 11.766C46.2007 14.5176 27.7846 36.0605 27.7846 36.0605C27.6836 36.182 27.5336 36.2499 27.3742 36.2499L23.2232 36.2862C23.0559 36.2862 22.9012 36.2136 22.7954 36.081C22.7165 35.9847 22.6723 35.8631 22.6723 35.7384C22.6723 35.7005 22.6739 35.6611 22.6834 35.6232C24.4401 27.5371 26.8976 16.0221 27.7625 11.5434C25.4976 14.2493 7.23299 36.092 7.23299 36.092C7.12724 36.2168 6.96467 36.2894 6.79578 36.2862C5.37843 36.2373 4.30989 36.2436 3.06932 36.2499H0.704959C0.493461 36.2546 0.299325 36.1299 0.210938 35.9357ZM236.004 12.4559C235.869 12.2917 235.663 12.1938 235.446 12.1938H231.661C231.317 12.1938 231.015 12.4353 230.946 12.7732L230.654 14.2051C229.812 13.452 228.974 12.9689 227.773 12.5017L227.396 12.3375C227.35 12.3201 227.305 12.3027 227.257 12.2933C223.147 11.3903 219.018 12.6295 215.636 15.7774C213.949 17.3309 212.669 19.1322 211.819 21.0724L216.793 0.876174C216.834 0.715147 216.797 0.539912 216.693 0.407302C216.591 0.274692 216.433 0.198915 216.264 0.198915H211.657C211.496 0.198915 211.351 0.263641 211.246 0.385201C211.246 0.385201 193.593 20.313 191.201 23.0157C191.905 19.6216 195.843 0.855651 195.843 0.855651C195.843 0.819341 195.853 0.778295 195.853 0.743564C195.853 0.622004 195.815 0.497288 195.731 0.399409C195.627 0.273114 195.471 0.198915 195.308 0.198915H190.218C190.057 0.198915 189.907 0.268377 189.805 0.385201L164.381 29.7504C163.955 25.4753 161.92 20.8198 161.92 20.8198C158.512 13.8372 150.932 11.575 146.632 15.5801L146.602 15.5864L145.928 16.0758C149.047 11.0982 156.959 11.3192 162.054 17.1809C162.054 17.1809 164.318 19.9026 165.924 23.9519C166.352 22.5216 166.614 21.0408 166.693 19.5268C164.041 15.9369 161.052 13.8293 161.052 13.8293C154.617 9.48793 146.913 11.3224 145.191 16.9394L145.169 16.963L144.836 17.7224C145.046 11.8481 152.006 8.08606 159.346 10.6135C159.346 10.6135 162.801 11.8812 166.289 14.6929C166.242 14.4687 166.194 14.2445 166.133 14.0204C165.755 12.5364 165.209 11.1282 164.504 9.81788C160.435 8.05606 156.83 7.72769 156.83 7.72769C149.083 7.18936 143.333 12.6216 144.65 18.3507L144.64 18.3807L144.727 19.2079C141.976 14.014 146.121 7.28092 153.74 5.7938C153.74 5.7938 157.277 5.17969 161.626 5.82853C160.523 4.66345 159.264 3.64204 157.867 2.78008C153.506 3.29157 150.253 4.8008 150.253 4.8008C143.28 8.20446 141.013 15.7901 145.018 20.0936L145.022 20.1188L145.515 20.7977C140.535 17.675 140.761 9.76263 146.616 4.66977C146.616 4.66977 149.353 2.38698 153.424 0.77198C151.744 0.268378 150.004 0.0126295 148.247 0C144.844 2.59063 142.857 5.40544 142.857 5.40544C138.518 11.8449 140.349 19.5442 145.965 21.2697L145.985 21.2887L146.749 21.6281C140.878 21.4165 137.116 14.4545 139.643 7.112C139.643 7.112 140.807 3.94673 143.373 0.618847C141.904 0.999312 140.513 1.55501 139.209 2.25437C137.552 6.20899 137.243 9.65054 137.243 9.65054C136.701 17.4003 142.137 23.1515 147.865 21.8365L147.89 21.8443L148.724 21.7512C143.529 24.5092 136.791 20.3604 135.312 12.7369C135.312 12.7369 134.719 9.33164 135.312 5.08812C134.075 6.26109 132.992 7.60771 132.096 9.11063C132.651 13.2926 134.07 16.3647 134.07 16.3647C137.475 23.3441 145.055 25.608 149.356 21.6012L149.388 21.5949L150.06 21.1071C146.945 26.0847 139.029 25.8637 133.939 20.002C133.939 20.002 131.329 16.7389 129.965 12.9405C129.967 12.7621 129.913 12.5916 129.802 12.4559C129.662 12.2917 129.457 12.1938 129.236 12.1938H125.456C125.108 12.1938 124.81 12.4353 124.737 12.7732C124.737 12.7732 124.447 13.2136 124.313 14.0835C123.473 13.3305 122.479 12.8947 121.57 12.5017L121.186 12.3375C121.142 12.3201 121.093 12.3027 121.049 12.2933C116.94 11.3903 112.813 12.6295 109.429 15.7774C107.431 17.6182 105.995 19.7999 105.18 22.1585C105.18 22.1585 105.155 22.2185 105.111 22.3132L106.719 13.0463C106.754 12.8363 106.695 12.6169 106.557 12.4527C106.414 12.2885 106.209 12.1922 105.995 12.1938L101.96 12.1985C101.607 12.2017 101.305 12.4527 101.241 12.8032L97.0723 35.5427C97.036 35.7558 97.0944 35.9752 97.2333 36.1441C97.3706 36.3083 97.5773 36.4015 97.7936 36.4015L102.046 36.4125C102.405 36.4125 102.71 36.1552 102.769 35.8031L104.375 26.552C104.393 26.6104 104.407 26.6483 104.407 26.6483C104.393 27.5671 104.468 28.5001 104.64 29.4315C105.265 32.9078 108.348 36.152 111.67 36.8119C114.568 37.3376 117.668 36.602 120.727 34.7138C120.667 35.0438 120.571 35.5427 120.571 35.5427C120.563 35.5853 120.56 35.6311 120.56 35.6768C120.56 35.8458 120.618 36.0115 120.727 36.1441C120.864 36.3099 121.071 36.4015 121.294 36.4015L125.045 36.4125C125.399 36.4125 125.703 36.1631 125.765 35.8158L129.068 17.9181C131.54 20.8545 134.774 23.3615 134.774 23.3615C141.207 27.706 148.907 25.8716 150.629 20.2562L150.654 20.2325L150.988 19.47C150.779 25.3443 143.816 29.1079 136.476 26.5773C136.476 26.5773 133.311 25.4138 129.976 22.8468C130.004 22.9684 130.028 23.0947 130.06 23.2178C130.456 24.7555 131.029 26.2126 131.771 27.5671C135.65 29.1647 138.996 29.4663 138.996 29.4663C146.738 30.0078 152.489 24.5723 151.173 18.8433L151.184 18.8133L151.093 17.9829C153.847 23.1768 149.701 29.9209 142.08 31.397C142.08 31.397 138.75 31.9795 134.575 31.416C135.574 32.4689 136.701 33.413 137.945 34.2213C142.271 33.6987 145.477 32.2069 145.477 32.2069C152.453 28.8048 154.721 21.2176 150.715 16.9188L150.708 16.8857L150.218 16.2147C155.198 19.3342 154.975 27.2435 149.118 32.3411C149.118 32.3411 146.324 34.6617 142.196 36.2799C143.335 36.6635 144.505 36.9366 145.69 37.0929H147.379C150.848 34.477 152.871 31.6022 152.871 31.6022C157.215 25.1643 155.384 17.4603 149.767 15.7396L149.743 15.7159L148.984 15.3796C154.857 15.5927 158.618 22.5548 156.091 29.8973C156.091 29.8973 154.829 33.3325 152.03 36.8167C152.256 36.7661 152.472 36.7204 152.695 36.6619C154.114 36.302 155.449 35.7763 156.691 35.1354C158.427 31.0955 158.746 27.5261 158.746 27.5261C159.291 19.7857 153.853 14.0282 148.122 15.3449L148.099 15.3386L147.27 15.427C152.459 12.6737 159.201 16.821 160.683 24.4445C160.683 24.4445 161.538 27.9444 160.897 32.0901C160.774 32.6884 160.523 33.5567 160.04 34.4818C159.893 34.7391 159.71 35.0438 159.489 35.3974C159.494 35.3927 159.496 35.3879 159.496 35.3879C159.494 35.3974 159.485 35.4053 159.478 35.4164C159.474 35.4274 159.474 35.429 159.474 35.4369C159.387 35.5853 159.368 35.77 159.442 35.9357C159.529 36.1299 159.725 36.2546 159.941 36.2499H162.302C163.543 36.2436 164.61 36.2373 166.028 36.2862C166.197 36.2894 166.358 36.2168 166.467 36.092C166.467 36.092 184.732 14.2493 186.995 11.5434C186.129 16.0221 183.673 27.5371 181.915 35.6232C181.908 35.6611 181.905 35.7005 181.905 35.7384C181.905 35.8631 181.946 35.9847 182.023 36.081C182.128 36.2136 182.285 36.2862 182.456 36.2862L186.609 36.2499C186.766 36.2499 186.916 36.182 187.019 36.0605C187.019 36.0605 205.43 14.5176 207.787 11.766C206.805 16.2605 204.117 27.6192 202.201 35.6105C202.188 35.6532 202.182 35.6926 202.182 35.7384C202.182 35.8568 202.223 35.9768 202.3 36.0763C202.406 36.2089 202.561 36.2862 202.731 36.2862H207.643C207.894 36.2862 208.117 36.1157 208.177 35.8663L210.303 27.2403L210.598 26.0279C210.607 26.3736 210.612 26.6483 210.612 26.6483C210.602 27.5671 210.678 28.5001 210.85 29.4315C211.471 32.9078 214.559 36.152 217.875 36.8119C220.773 37.3376 223.876 36.602 226.935 34.7138C226.874 35.0438 226.779 35.5427 226.779 35.5427C226.771 35.5853 226.766 35.6311 226.766 35.6768C226.766 35.8458 226.823 36.0115 226.93 36.1441C227.074 36.3099 227.281 36.4015 227.495 36.4015L231.25 36.4125C231.607 36.4125 231.909 36.1631 231.972 35.8158L235.362 17.7966L236.175 12.9405C236.178 12.7621 236.123 12.5916 236.004 12.4559Z" fill="#C9D4E4"/>
</svg>
