<svg width="320" height="47" viewBox="0 0 320 47" fill="none" xmlns="http://www.w3.org/2000/svg">
<path d="M114.171 21.6414V32.1989H107.987V22.2447C107.987 19.1529 106.856 18.4742 105.499 18.4742C104.141 18.4742 102.709 19.3037 102.709 22.848V32.1235H96.5249V22.1693C96.5249 19.0775 95.3938 18.3988 94.0364 18.3988C92.679 18.3988 91.2462 19.3037 91.2462 22.7726V32.0481H85.0625V13.5725H91.2462V15.4577C92.6036 13.8741 93.8102 12.9692 96.0725 12.9692C98.0332 12.8938 99.9184 13.7987 101.05 15.4577C102.558 13.7987 104.669 12.8938 106.932 12.9692C110.778 12.9692 114.171 15.8348 114.171 21.6414Z" fill="#C9D4E4"/>
<path d="M117.57 7.39238C117.57 5.35629 119.229 3.69727 121.265 3.69727C123.301 3.69727 124.961 5.35629 124.961 7.39238C124.961 9.42847 123.301 11.0875 121.265 11.0875C119.229 11.0875 117.57 9.42847 117.57 7.39238ZM118.174 13.5761H124.357V32.2025H118.174V13.5761Z" fill="#C9D4E4"/>
<path d="M141.701 25.5628L144.868 29.7104C143.058 31.671 140.57 32.8022 137.93 32.7268C131.445 32.7268 127.523 28.2775 127.523 22.7726C127.523 17.2676 131.445 12.8184 137.93 12.8184C140.57 12.8184 143.133 13.9495 144.943 15.8348L141.701 19.9824C140.796 18.9266 139.514 18.3233 138.232 18.3233C135.819 18.2479 133.783 20.0578 133.707 22.4709C133.632 24.884 135.442 26.9201 137.855 26.9955C138.006 26.9955 138.081 26.9955 138.232 26.9955C139.514 27.2218 140.796 26.6185 141.701 25.5628Z" fill="#C9D4E4"/>
<path d="M161.385 12.9707V19.7577C160.254 19.456 159.047 19.456 157.991 19.7577C156.181 20.2855 154.598 22.2462 154.598 25.338V32.2004H148.414V13.574H154.598V17.0428C155.804 14.3281 157.84 13.1969 161.385 12.9707Z" fill="#C9D4E4"/>
<path d="M184.685 22.8487C184.685 28.3537 180.085 32.803 174.128 32.803C167.869 32.803 163.57 28.3537 163.57 22.8487C163.57 17.3438 167.793 12.8945 174.128 12.8945C180.01 12.9699 184.685 17.3438 184.685 22.8487ZM178.426 22.8487C178.426 20.4356 176.466 18.4749 174.052 18.4749C171.639 18.4749 169.679 20.4356 169.679 22.8487C169.679 25.2619 171.639 27.2226 174.052 27.2226C176.466 27.2226 178.426 25.2619 178.426 22.8487Z" fill="#C9D4E4"/>
<path d="M203.905 26.3184C203.905 29.9381 201.04 32.8037 195.308 32.8037C192.367 32.8791 189.426 31.8234 187.164 29.9381L189.653 25.2626C191.01 26.3938 192.669 27.1479 194.403 27.4496C196.59 27.6758 197.722 27.2987 197.722 26.5446C197.722 25.6397 196.666 25.4889 194.856 25.1872C188.672 23.9807 188.069 21.1151 188.069 19.0036C188.069 15.8363 190.708 12.9707 195.912 12.9707C198.174 13.0461 200.436 13.7248 202.397 14.9314L200.059 19.5314C199.004 18.7019 197.722 18.2494 196.44 18.0986C195.082 17.9478 194.328 18.3249 194.328 18.7773C194.328 19.2298 194.705 19.6068 196.289 19.8331C200.587 20.5872 203.905 22.4725 203.905 26.3184Z" fill="#C9D4E4"/>
<path d="M213.478 15.4592C214.835 13.8756 216.871 12.9707 219.058 12.9707C224.337 12.9707 228.409 17.4199 228.409 22.9249C228.409 28.4299 224.412 32.8037 219.058 32.8037C216.947 32.8791 214.911 31.8988 213.478 30.3151V42.1546H207.219V13.574H213.402L213.478 15.4592ZM222.225 22.9249C222.225 20.5118 220.265 18.5511 217.852 18.6265C215.439 18.6265 213.478 20.5872 213.553 23.0003C213.553 25.4134 215.514 27.2987 217.852 27.2987C220.265 27.2987 222.225 25.3381 222.225 22.9249Z" fill="#C9D4E4"/>
<path d="M252.029 22.8487C252.029 28.3537 247.429 32.803 241.472 32.803C235.212 32.803 230.914 28.3537 230.914 22.8487C230.914 17.3438 235.137 12.8945 241.472 12.8945C247.354 12.9699 252.029 17.3438 252.029 22.8487ZM245.845 22.8487C245.845 20.4356 243.885 18.4749 241.472 18.4749C239.058 18.4749 237.098 20.4356 237.098 22.8487C237.098 25.2619 239.058 27.2226 241.472 27.2226C243.885 27.2226 245.845 25.2619 245.845 22.8487C245.845 22.9242 245.845 22.8487 245.845 22.8487Z" fill="#C9D4E4"/>
<path d="M256.998 19.1535H253.906V13.5731H256.998V7.99269L263.182 6.10742V13.5731H268.159V19.1535H263.182V32.1995H256.998V19.1535Z" fill="#C9D4E4"/>
<path d="M269.516 29.4111C269.516 27.5258 271.024 26.0176 272.909 26.0176C274.794 26.0176 276.303 27.5258 276.303 29.4111C276.303 31.2963 274.794 32.8045 272.909 32.8045C271.099 32.8045 269.591 31.2963 269.516 29.4111Z" fill="#C9D4E4"/>
<path d="M293.948 25.5636L297.115 29.7111C295.305 31.6718 292.817 32.803 290.102 32.803C283.617 32.803 279.695 28.3537 279.695 22.8487C279.695 17.3438 283.617 12.8945 290.102 12.8945C292.741 12.8945 295.305 14.0257 297.115 15.911L293.948 20.0585C293.043 19.0028 291.761 18.3995 290.479 18.3995C288.066 18.3241 286.03 20.134 285.954 22.5471C285.879 24.9603 287.689 26.9964 290.102 27.0718C290.253 27.0718 290.328 27.0718 290.479 27.0718C291.836 27.2226 293.118 26.6193 293.948 25.5636Z" fill="#C9D4E4"/>
<path d="M319.212 21.6443V32.2017H312.953V22.2475C312.953 19.1557 311.219 18.5524 309.861 18.5524C308.504 18.5524 306.77 19.6836 306.77 22.9262V32.2017H300.586V3.62109H306.77V15.4606C307.901 13.8769 309.786 12.8966 311.747 12.972C315.668 12.972 319.212 15.8376 319.212 21.6443Z" fill="#C9D4E4"/>
<path d="M41.0273 4.73755L28.4688 8.32422L37.8755 41.2616L50.4341 37.6749L41.0273 4.73755Z" fill="#C9D4E4" fill-opacity="0.5"/>
<path d="M9.80469 8.16994L9.84455 8.31174L19.1544 41.4746L31.6738 37.8281L22.3041 4.52344L9.80469 8.16994Z" fill="#C9D4E4" fill-opacity="0.5"/>
<path d="M23.5542 45.7511C20.0885 44.7495 18.1053 41.1435 19.0869 37.6779L28.4823 4.74381C29.4839 1.27812 33.0898 -0.745197 36.5555 0.256446C40.0212 1.25809 42.0445 4.86401 41.0429 8.3297L31.6274 41.2637C30.6458 44.7294 27.0199 46.7327 23.5542 45.7511Z" fill="#C9D4E4"/>
<path d="M4.74813 45.7316C1.28244 44.73 -0.720843 41.1241 0.240735 37.6584L9.65619 4.72433C10.6779 1.25865 14.3238 -0.704576 17.7695 0.3171C21.1751 1.31874 23.1583 4.8846 22.2168 8.31022L12.8013 41.2443C11.8398 44.7099 8.23385 46.7132 4.74813 45.7316Z" fill="#C9D4E4"/>
<path d="M37.7109 39.5915C37.7109 43.1308 40.5816 46.0014 44.1208 46.0014C47.66 46.0014 50.5307 43.1308 50.5307 39.5915C50.5307 36.0523 47.66 33.1816 44.1208 33.1816C40.5816 33.2013 37.7109 36.0523 37.7109 39.5915Z" fill="#C9D4E4"/>
</svg>
