<svg width="248" height="41" viewBox="0 0 248 41" fill="none" xmlns="http://www.w3.org/2000/svg">
<path d="M29.3193 28.002C28.658 29.5963 27.666 31.027 26.4674 32.2534C26.6741 32.7848 26.7981 33.3162 26.8394 33.8885C27.1287 36.5866 33.163 36.2186 33.411 35.6872C33.7003 35.1149 32.9977 29.8415 29.3193 28.002ZM17.292 36.1778C16.5067 36.1778 15.7215 36.096 14.9775 35.9734C14.9362 38.4261 16.7134 40.5518 19.1519 40.9606C20.1852 41.0832 21.2184 40.9197 22.1277 40.47H21.8384C19.6479 40.1021 18.9039 38.2217 19.1519 36.0143C18.5319 36.096 17.912 36.1369 17.292 36.1778ZM1.09038 35.5237C1.3797 36.0551 7.28999 36.5457 7.57931 33.8477C7.62064 33.2754 7.74463 32.7439 7.95128 32.2125C6.71136 30.9862 5.76075 29.5554 5.05813 27.9611C1.3797 29.8007 0.801069 35.0332 1.09038 35.5237ZM5.18212 16.5559C5.92608 14.9208 7.00067 13.4491 8.28193 12.2228C5.47144 9.93355 0.677077 9.72916 0.222439 10.0153C-0.232199 10.3015 -0.232198 16.1471 2.61962 16.0654C3.5289 16.0654 4.39684 16.2289 5.18212 16.5559ZM21.1771 6.49973C21.1771 5.84567 21.8384 4.74194 21.8384 4.21051C21.8384 3.67909 20.0612 2.77976 19.3172 2.04394C18.5319 1.30812 17.8293 0 17.292 0H17.2507C16.6721 0 15.9281 1.349 15.1842 2.08482C14.3989 2.82064 12.663 3.71997 12.663 4.2514C12.663 4.78282 13.3243 5.88655 13.3243 6.54061C13.2416 7.1538 13.0763 7.76698 12.8696 8.33928C12.787 8.62543 13.035 8.74806 13.2416 9.32037H13.3656C15.8868 8.50279 18.6146 8.50279 21.1771 9.32037H21.3011C21.5491 8.74806 21.7557 8.66631 21.6731 8.33928C21.3838 7.76698 21.2598 7.15379 21.1771 6.49973ZM27.418 17.4553C26.7981 16.0245 25.8475 14.7164 24.6902 13.6126C22.913 11.8957 20.5571 10.8329 18.036 10.6285C17.7053 10.6285 17.416 10.5876 17.168 10.5876C16.92 10.5876 16.6307 10.5876 16.3001 10.6285C13.8202 10.8329 11.4644 11.8957 9.64584 13.6126C8.48858 14.7164 7.53797 16.0245 6.91801 17.4553C5.5541 20.562 5.51277 24.1185 6.83535 27.2253C7.37265 28.5334 8.15794 29.7598 9.14987 30.7818C10.7204 32.4987 12.8283 33.6433 15.1428 34.0929C15.8041 34.2156 16.5067 34.2973 17.168 34.2973H17.9946C20.7638 34.0929 23.3263 32.8257 25.1862 30.8226C26.1781 29.8007 26.9634 28.5743 27.5007 27.2662C28.8233 24.1185 28.782 20.562 27.418 17.4553ZM34.1136 10.0153C33.659 9.72916 28.8646 9.89268 26.0541 12.2228C27.3767 13.4491 28.41 14.9208 29.1539 16.5559C29.9392 16.2289 30.8072 16.0654 31.6751 16.1063C34.6096 16.188 34.6509 10.3832 34.1136 10.0153ZM243.536 28.3699C243.536 30.3321 241.47 31.3949 239.238 31.3949C235.477 31.3949 234.402 27.675 234.402 27.675L230.476 29.3919C230.476 29.3919 231.757 35.4828 239.238 35.4828C244.694 35.4828 248 32.4578 248 28.329C248 23.628 244.611 22.0337 240.684 20.5212C237.171 19.1313 235.435 18.3955 235.435 16.3515C235.435 14.7573 236.882 13.4491 239.403 13.4491C242.875 13.4491 244.032 16.8421 244.032 16.8421L247.917 15.1252C247.917 15.1252 246.388 9.32037 239.403 9.32037C233.948 9.32037 230.972 12.6316 230.972 16.3515C230.972 20.8482 234.816 22.8921 238.659 24.3229C241.676 25.4266 243.536 26.326 243.536 28.3699ZM215.969 25.4266C215.969 29.024 214.109 31.4767 210.472 31.4767C206.835 31.4767 204.975 29.0648 204.975 25.4266V9.77004H200.594V25.9172C200.594 31.4767 204.231 35.5237 210.472 35.5237C216.671 35.5237 220.35 31.4767 220.35 25.9172V9.77004H215.969V25.4266ZM185.756 35.074H190.964L182.656 22.0746L190.55 9.77004H185.549L180.052 18.6816L174.597 9.77004H169.389L177.325 21.9519L168.976 35.074H173.977L179.846 25.4266L185.756 35.074ZM150.46 14.839L154.303 25.304H146.616L150.46 14.839ZM138.267 35.074H142.979L145.169 29.2692H155.915L158.106 35.074H162.859L153.105 9.77004H148.145L138.267 35.074ZM116.692 35.074H132.067V30.9453H121.073V9.77004H116.692V35.074ZM96.151 14.7981L99.9948 25.2631H92.3073L96.151 14.7981ZM83.9585 35.074H88.6288L90.8194 29.2692H101.565L103.715 35.074H108.468L98.7135 9.77004H93.7538L83.9585 35.074ZM66.8889 31.3541C61.8878 31.3541 57.7961 27.3888 57.7961 22.4425C57.7961 17.4961 61.8052 13.4491 66.8475 13.4491C69.41 13.4083 71.8485 14.4302 73.6258 16.2698L76.5189 13.163C76.5189 13.163 73.4191 9.32037 66.8889 9.32037C59.284 9.36125 53.2911 14.9617 53.2911 22.4425C53.2911 29.9233 59.284 35.5237 66.8475 35.5237C73.0471 35.5237 76.6842 32.8257 76.6842 32.8257V20.8482H66.4342V24.8952H72.3445V30.2912C72.3859 30.2912 70.526 31.3949 66.8889 31.3541Z" fill="#C9D4E4"/>
</svg>
