<svg width="10" height="19" viewBox="0 0 10 19" fill="none" xmlns="http://www.w3.org/2000/svg">
<path d="M8.33808 2.50829L4.13105 0.427824C1.86135 -0.683656 0 0.446824 0 2.93578V17.0335C0 18.1165 0.902184 19 2.0038 19H9.05033C9.57265 19 10 18.5725 10 18.05V5.13974C10 4.14226 9.24976 2.95478 8.33808 2.50829ZM6.64767 11.1626H3.35233C2.96296 11.1626 2.64008 10.8396 2.64008 10.4501C2.64008 10.0607 2.96296 9.73766 3.35233 9.73766H6.64767C7.03704 9.73766 7.35992 10.0607 7.35992 10.4501C7.35992 10.8396 7.04653 11.1626 6.64767 11.1626ZM6.64767 7.3627H3.35233C2.96296 7.3627 2.64008 7.03971 2.64008 6.65022C2.64008 6.26072 2.96296 5.93773 3.35233 5.93773H6.64767C7.03704 5.93773 7.35992 6.26072 7.35992 6.65022C7.35992 7.03971 7.04653 7.3627 6.64767 7.3627Z" fill="#D2D6D9"/>
</svg>
