<svg width="405" height="17" viewBox="0 0 405 17" fill="none" xmlns="http://www.w3.org/2000/svg">
<path d="M202.445 8.90909C202.445 9.99621 202.246 10.9309 201.848 11.7131C201.451 12.492 200.905 13.0919 200.213 13.5128C199.523 13.9304 198.739 14.1392 197.861 14.1392C196.979 14.1392 196.192 13.9304 195.5 13.5128C194.81 13.0919 194.267 12.4903 193.869 11.7081C193.471 10.9259 193.272 9.9929 193.272 8.90909C193.272 7.82197 193.471 6.88897 193.869 6.11008C194.267 5.32789 194.81 4.72798 195.5 4.31037C196.192 3.88944 196.979 3.67898 197.861 3.67898C198.739 3.67898 199.523 3.88944 200.213 4.31037C200.905 4.72798 201.451 5.32789 201.848 6.11008C202.246 6.88897 202.445 7.82197 202.445 8.90909ZM200.924 8.90909C200.924 8.08049 200.789 7.38281 200.521 6.81605C200.256 6.24598 199.891 5.8151 199.427 5.52344C198.966 5.22846 198.444 5.08097 197.861 5.08097C197.274 5.08097 196.751 5.22846 196.29 5.52344C195.829 5.8151 195.465 6.24598 195.196 6.81605C194.931 7.38281 194.799 8.08049 194.799 8.90909C194.799 9.73769 194.931 10.437 195.196 11.0071C195.465 11.5739 195.829 12.0047 196.29 12.2997C196.751 12.5914 197.274 12.7372 197.861 12.7372C198.444 12.7372 198.966 12.5914 199.427 12.2997C199.891 12.0047 200.256 11.5739 200.521 11.0071C200.789 10.437 200.924 9.73769 200.924 8.90909ZM204.36 14V3.81818H207.989C208.778 3.81818 209.433 3.95407 209.953 4.22585C210.477 4.49763 210.868 4.87382 211.126 5.3544C211.385 5.83168 211.514 6.38352 211.514 7.00994C211.514 7.63305 211.383 8.18158 211.121 8.65554C210.863 9.12618 210.472 9.49242 209.948 9.75426C209.428 10.0161 208.773 10.147 207.984 10.147H205.235V8.82457H207.845C208.342 8.82457 208.747 8.75331 209.058 8.6108C209.373 8.46828 209.603 8.26113 209.749 7.98935C209.895 7.71757 209.968 7.3911 209.968 7.00994C209.968 6.62547 209.894 6.29238 209.744 6.01065C209.599 5.72893 209.368 5.51349 209.053 5.36435C208.742 5.21188 208.332 5.13565 207.825 5.13565H205.896V14H204.36ZM209.386 9.40625L211.902 14H210.152L207.686 9.40625H209.386Z" fill="#D2D6D9"/>
<path d="M0 8H183.727" stroke="#D2D6D9"/>
<path d="M221.273 8H405" stroke="#D2D6D9"/>
</svg>
