<svg width="151" height="26" viewBox="0 0 151 26" fill="none" xmlns="http://www.w3.org/2000/svg">
<rect width="27" height="26" fill="#236BFF"/>
<path d="M13.5 16.4387L16.7589 15.566L18.1205 20L13.5 16.4387ZM21 10.7075H15.2634L13.5 5L11.7366 10.7075H6L10.6429 14.2453L8.87946 19.9528L13.5223 16.4151L16.3795 14.2453L21 10.7075Z" fill="white"/>
<rect x="31" width="27" height="26" fill="#236BFF"/>
<path d="M44.5 16.4387L47.7589 15.566L49.1205 20L44.5 16.4387ZM52 10.7075H46.2634L44.5 5L42.7366 10.7075H37L41.6429 14.2453L39.8795 19.9528L44.5223 16.4151L47.3795 14.2453L52 10.7075Z" fill="white"/>
<rect x="62" width="27" height="26" fill="#236BFF"/>
<path d="M75.5 16.4387L78.7589 15.566L80.1205 20L75.5 16.4387ZM83 10.7075H77.2634L75.5 5L73.7366 10.7075H68L72.6429 14.2453L70.8795 19.9528L75.5223 16.4151L78.3795 14.2453L83 10.7075Z" fill="white"/>
<rect x="124" width="27" height="26" fill="#236BFF"/>
<path d="M137.5 16.4387L140.759 15.566L142.121 20L137.5 16.4387ZM145 10.7075H139.263L137.5 5L135.737 10.7075H130L134.643 14.2453L132.879 19.9528L137.522 16.4151L140.379 14.2453L145 10.7075Z" fill="white"/>
<rect x="93" width="27" height="26" fill="#236BFF"/>
<path d="M106.5 16.4387L109.759 15.566L111.121 20L106.5 16.4387ZM114 10.7075H108.263L106.5 5L104.737 10.7075H99L103.643 14.2453L101.879 19.9528L106.522 16.4151L109.379 14.2453L114 10.7075Z" fill="white"/>
</svg>
