<svg width="48" height="48" viewBox="0 0 48 48" fill="none" xmlns="http://www.w3.org/2000/svg">
<rect width="48" height="48" rx="10" fill="#B19AF8"/>
<path opacity="0.4" d="M14.77 22C14.34 22 14 21.66 14 21.23V18.92C14 16.21 16.21 14 18.92 14H21.23C21.66 14 22 14.34 22 14.77C22 15.2 21.66 15.54 21.23 15.54H18.92C17.05 15.54 15.54 17.06 15.54 18.92V21.23C15.54 21.66 15.19 22 14.77 22Z" fill="white"/>
<path opacity="0.4" d="M33.23 22C32.81 22 32.46 21.66 32.46 21.23V18.92C32.46 17.05 30.94 15.54 29.08 15.54H26.77C26.34 15.54 26 15.19 26 14.77C26 14.35 26.34 14 26.77 14H29.08C31.79 14 34 16.21 34 18.92V21.23C34 21.66 33.66 22 33.23 22Z" fill="white"/>
<path d="M29.0799 34.0002H27.6899C27.2699 34.0002 26.9199 33.6602 26.9199 33.2302C26.9199 32.8102 27.2599 32.4602 27.6899 32.4602H29.0799C30.9499 32.4602 32.4599 30.9402 32.4599 29.0802V27.7002C32.4599 27.2802 32.7999 26.9302 33.2299 26.9302C33.6499 26.9302 33.9999 27.2702 33.9999 27.7002V29.0802C33.9999 31.7902 31.7899 34.0002 29.0799 34.0002Z" fill="white"/>
<path d="M21.23 34H18.92C16.21 34 14 31.79 14 29.08V26.77C14 26.34 14.34 26 14.77 26C15.2 26 15.54 26.34 15.54 26.77V29.08C15.54 30.95 17.06 32.46 18.92 32.46H21.23C21.65 32.46 22 32.8 22 33.23C22 33.66 21.66 34 21.23 34Z" fill="white"/>
<path d="M30.46 23.23H29.1H18.9H17.54C17.11 23.23 16.77 23.58 16.77 24C16.77 24.42 17.11 24.77 17.54 24.77H18.9H29.1H30.46C30.89 24.77 31.23 24.42 31.23 24C31.23 23.58 30.89 23.23 30.46 23.23Z" fill="white"/>
<path d="M18.8999 25.94V26.27C18.8999 27.93 20.2399 29.27 21.8999 29.27H26.0999C27.7599 29.27 29.0999 27.93 29.0999 26.27V25.94C29.0999 25.82 29.0099 25.73 28.8899 25.73H19.1099C18.9899 25.73 18.8999 25.82 18.8999 25.94Z" fill="white"/>
<path opacity="0.4" d="M18.8999 22.06V21.73C18.8999 20.07 20.2399 18.73 21.8999 18.73H26.0999C27.7599 18.73 29.0999 20.07 29.0999 21.73V22.06C29.0999 22.18 29.0099 22.27 28.8899 22.27H19.1099C18.9899 22.27 18.8999 22.18 18.8999 22.06Z" fill="white"/>
</svg>
