<svg width="48" height="48" viewBox="0 0 48 48" fill="none" xmlns="http://www.w3.org/2000/svg">
<rect width="48" height="48" rx="10" fill="#D1A548"/>
<path d="M30.75 34C32.5449 34 34 32.5449 34 30.75C34 28.9551 32.5449 27.5 30.75 27.5C28.9551 27.5 27.5 28.9551 27.5 30.75C27.5 32.5449 28.9551 34 30.75 34Z" fill="white"/>
<path d="M31 20C32.6569 20 34 18.6569 34 17C34 15.3431 32.6569 14 31 14C29.3431 14 28 15.3431 28 17C28 18.6569 29.3431 20 31 20Z" fill="white"/>
<path d="M17 20C18.6569 20 20 18.6569 20 17C20 15.3431 18.6569 14 17 14C15.3431 14 14 15.3431 14 17C14 18.6569 15.3431 20 17 20Z" fill="white"/>
<path opacity="0.4" d="M16.8299 20.02C17.7999 22.8 20.4199 24.67 23.3699 24.67C23.3799 24.67 23.3899 24.67 23.3999 24.67L26.9299 24.66C28.4499 24.64 29.8099 25.67 30.2199 27.15V29C30.2199 29.42 30.5599 29.76 30.9799 29.76C31.3999 29.76 31.7399 29.42 31.7399 29V17.78C31.7399 17.36 31.3999 17.02 30.9799 17.02C30.5599 17.02 30.2199 17.36 30.2199 17.78V24.4C29.3399 23.62 28.1899 23.14 26.9399 23.14C26.9299 23.14 26.9299 23.14 26.9199 23.14L23.3899 23.15C23.3799 23.15 23.3799 23.15 23.3699 23.15C21.0799 23.15 19.0299 21.7 18.2799 19.53C18.1699 19.21 17.8699 19.02 17.5599 19.02C17.4799 19.02 17.3899 19.03 17.3099 19.06C16.8999 19.18 16.6899 19.62 16.8299 20.02Z" fill="white"/>
</svg>
