<svg width="48" height="48" viewBox="0 0 48 48" fill="none" xmlns="http://www.w3.org/2000/svg">
<rect width="48" height="48" rx="10" fill="#E28165"/>
<path opacity="0.4" d="M34 20V28.19C34 31.83 31.83 34 28.19 34H19.81C16.17 34 14 31.83 14 28.19V20.01L34 20Z" fill="white"/>
<path d="M21 29.7499C20.89 29.7499 20.77 29.7199 20.67 29.6699C19.9 29.2799 19.24 28.6999 18.76 27.9799C18.36 27.3799 18.36 26.6099 18.76 26.0099C19.24 25.2899 19.9 24.7099 20.67 24.3299C21.04 24.1399 21.49 24.2999 21.68 24.6699C21.87 25.0399 21.72 25.4899 21.34 25.6799C20.8 25.9499 20.34 26.3599 20.01 26.8599C19.95 26.9499 19.95 27.0699 20.01 27.1699C20.34 27.6699 20.8 28.0799 21.34 28.3499C21.71 28.5399 21.86 28.9899 21.68 29.3599C21.54 29.5999 21.27 29.7499 21 29.7499Z" fill="white"/>
<path d="M27.21 29.7499C26.93 29.7499 26.67 29.5999 26.54 29.3399C26.35 28.9699 26.5 28.5199 26.88 28.3299C27.42 28.0599 27.88 27.6499 28.21 27.1499C28.27 27.0599 28.27 26.9399 28.21 26.8399C27.88 26.3399 27.42 25.9299 26.88 25.6599C26.51 25.4699 26.36 25.0199 26.54 24.6499C26.73 24.2799 27.18 24.1299 27.55 24.3099C28.32 24.6999 28.98 25.2799 29.46 25.9999C29.86 26.5999 29.86 27.3699 29.46 27.9699C28.98 28.6899 28.32 29.2699 27.55 29.6499C27.43 29.7199 27.32 29.7499 27.21 29.7499Z" fill="white"/>
<path d="M34 19.81V20L14 20.01V19.81C14 16.17 16.17 14 19.81 14H28.19C31.83 14 34 16.17 34 19.81Z" fill="white"/>
</svg>
