<svg width="828" height="742" viewBox="0 0 828 742" fill="none" xmlns="http://www.w3.org/2000/svg">
<path d="M801.913 0H221.051C206.663 0 195 11.6633 195 26.0505V542.95C195 557.337 206.663 569 221.051 569H801.913C816.3 569 827.963 557.337 827.963 542.95V26.0505C827.963 11.6633 816.3 0 801.913 0Z" fill="white"/>
<path d="M790.798 59.8047H243.994C233.655 59.8047 225.273 68.1859 225.273 78.5248V79.5635C225.273 89.9024 233.655 98.2833 243.994 98.2833H790.798C801.137 98.2833 809.518 89.9024 809.518 79.5635V78.5248C809.518 68.1859 801.137 59.8047 790.798 59.8047Z" fill="#F3F6FC"/>
<path d="M408.889 73.624H248.82C245.83 73.624 243.406 76.0479 243.406 79.0378C243.406 82.0278 245.83 84.4515 248.82 84.4515H408.889C411.88 84.4515 414.303 82.0278 414.303 79.0378C414.303 76.0479 411.88 73.624 408.889 73.624Z" fill="#C0C9E2"/>
<path d="M461.809 73.624H424.108C421.12 73.624 418.695 76.0479 418.695 79.0378C418.695 82.0278 421.12 84.4515 424.108 84.4515H461.809C464.799 84.4515 467.224 82.0278 467.224 79.0378C467.224 76.0479 464.799 73.624 461.809 73.624Z" fill="#C0C9E2"/>
<path d="M495.592 108.905H240.998C232.314 108.905 225.273 115.945 225.273 124.63V413.096C225.273 421.781 232.314 428.821 240.998 428.821H495.592C504.277 428.821 511.317 421.781 511.317 413.096V124.63C511.317 115.945 504.277 108.905 495.592 108.905Z" fill="#F2F4F8"/>
<path d="M231 38C234.314 38 237 35.3137 237 32C237 28.6863 234.314 26 231 26C227.686 26 225 28.6863 225 32C225 35.3137 227.686 38 231 38Z" fill="#F8334A"/>
<path d="M249 38C252.314 38 255 35.3137 255 32C255 28.6863 252.314 26 249 26C245.686 26 243 28.6863 243 32C243 35.3137 245.686 38 249 38Z" fill="#F7C31D"/>
<path d="M267 38C270.314 38 273 35.3137 273 32C273 28.6863 270.314 26 267 26C263.686 26 261 28.6863 261 32C261 35.3137 263.686 38 267 38Z" fill="#38D535"/>
<path d="M436.665 455.213H278.98C276.661 455.213 274.781 457.092 274.781 459.412C274.781 461.731 276.661 463.61 278.98 463.61H436.665C438.985 463.61 440.864 461.731 440.864 459.412C440.864 457.092 438.985 455.213 436.665 455.213Z" fill="#C0C9E2"/>
<path d="M694.184 455.213H596.215C593.895 455.213 592.016 457.092 592.016 459.412C592.016 461.731 593.895 463.61 596.215 463.61H694.184C696.503 463.61 698.382 461.731 698.382 459.412C698.382 457.092 696.503 455.213 694.184 455.213Z" fill="#C0C9E2"/>
<path d="M462.323 505.599H279.446C276.87 505.599 274.781 507.687 274.781 510.264C274.781 512.84 276.87 514.93 279.446 514.93H462.323C464.9 514.93 466.989 512.84 466.989 510.264C466.989 507.687 464.9 505.599 462.323 505.599Z" fill="#C0C9E2"/>
<path d="M764.628 505.599H596.681C594.104 505.599 592.016 507.687 592.016 510.264C592.016 512.84 594.104 514.93 596.681 514.93H764.628C767.206 514.93 769.294 512.84 769.294 510.264C769.294 507.687 767.206 505.599 764.628 505.599Z" fill="#C0C9E2"/>
<path d="M371.768 470.74H279.516C277.061 470.74 275.07 472.73 275.07 475.186C275.07 477.641 277.061 479.632 279.516 479.632H371.768C374.223 479.632 376.213 477.641 376.213 475.186C376.213 472.73 374.223 470.74 371.768 470.74Z" fill="#E4E8F4"/>
<path d="M770.694 471.076H596.215C593.895 471.076 592.016 472.956 592.016 475.276C592.016 477.594 593.895 479.473 596.215 479.473H770.694C773.014 479.473 774.893 477.594 774.893 475.276C774.893 472.956 773.014 471.076 770.694 471.076Z" fill="#E4E8F4"/>
<path d="M706.78 522.394H596.681C594.104 522.394 592.016 524.482 592.016 527.059C592.016 529.635 594.104 531.725 596.681 531.725H706.78C709.357 531.725 711.445 529.635 711.445 527.059C711.445 524.482 709.357 522.394 706.78 522.394Z" fill="#E4E8F4"/>
<path d="M384.414 521.46H278.98C276.661 521.46 274.781 523.339 274.781 525.659C274.781 527.978 276.661 529.857 278.98 529.857H384.414C386.734 529.857 388.613 527.978 388.613 525.659C388.613 523.339 386.734 521.46 384.414 521.46Z" fill="#E4E8F4"/>
<path d="M409.453 379.85H318.345C315.888 379.85 313.898 381.84 313.898 384.296C313.898 386.75 315.888 388.742 318.345 388.742H409.453C411.909 388.742 413.899 386.75 413.899 384.296C413.899 381.84 411.909 379.85 409.453 379.85Z" fill="#E4E7ED"/>
<path d="M245.181 487.235C256.175 487.235 265.088 478.321 265.088 467.327C265.088 456.333 256.175 447.42 245.181 447.42C234.186 447.42 225.273 456.333 225.273 467.327C225.273 478.321 234.186 487.235 245.181 487.235Z" fill="#DDE9FE"/>
<path d="M249.349 462.123C249.349 464.423 247.487 466.286 245.186 466.286C242.885 466.286 241.023 464.423 241.023 462.123C241.023 459.821 242.885 457.96 245.186 457.96C247.487 457.96 249.349 459.821 249.349 462.123Z" fill="#3180FF"/>
<path d="M245.194 469.409C242.068 469.409 235.828 470.978 235.828 474.091V475.653C235.828 476.227 236.296 476.694 236.869 476.694H253.52C254.093 476.694 254.56 476.227 254.56 475.653V474.091C254.56 470.978 248.32 469.409 245.194 469.409Z" fill="#3180FF"/>
<path d="M561.798 487.235C572.792 487.235 581.705 478.321 581.705 467.327C581.705 456.333 572.792 447.42 561.798 447.42C550.804 447.42 541.891 456.333 541.891 467.327C541.891 478.321 550.804 487.235 561.798 487.235Z" fill="#DDE9FE"/>
<path d="M565.967 462.123C565.967 464.423 564.105 466.286 561.804 466.286C559.503 466.286 557.641 464.423 557.641 462.123C557.641 459.823 559.503 457.96 561.804 457.96C564.105 457.96 565.967 459.823 565.967 462.123Z" fill="#3180FF"/>
<path d="M561.803 469.409C558.677 469.409 552.438 470.978 552.438 474.091V475.653C552.438 476.227 552.905 476.694 553.479 476.694H570.129C570.702 476.694 571.169 476.227 571.169 475.653V474.091C571.169 470.978 564.93 469.409 561.803 469.409Z" fill="#3180FF"/>
<path d="M245.181 537.819C256.175 537.819 265.088 528.905 265.088 517.911C265.088 506.917 256.175 498.004 245.181 498.004C234.186 498.004 225.273 506.917 225.273 517.911C225.273 528.905 234.186 537.819 245.181 537.819Z" fill="#DDE9FE"/>
<path d="M249.349 512.706C249.349 515.006 247.487 516.869 245.186 516.869C242.885 516.869 241.023 515.006 241.023 512.706C241.023 510.406 242.885 508.543 245.186 508.543C247.487 508.543 249.349 510.406 249.349 512.706Z" fill="#3180FF"/>
<path d="M245.194 519.992C242.068 519.992 235.828 521.561 235.828 524.676V526.236C235.828 526.81 236.296 527.277 236.869 527.277H253.52C254.093 527.277 254.56 526.81 254.56 526.236V524.676C254.56 521.561 248.32 519.992 245.194 519.992Z" fill="#3180FF"/>
<path d="M561.798 537.819C572.792 537.819 581.705 528.905 581.705 517.911C581.705 506.917 572.792 498.004 561.798 498.004C550.804 498.004 541.891 506.917 541.891 517.911C541.891 528.905 550.804 537.819 561.798 537.819Z" fill="#DDE9FE"/>
<path d="M565.967 512.706C565.967 515.006 564.105 516.869 561.804 516.869C559.503 516.869 557.641 515.006 557.641 512.706C557.641 510.404 559.503 508.543 561.804 508.543C564.105 508.543 565.967 510.404 565.967 512.706Z" fill="#3180FF"/>
<path d="M561.803 519.992C558.677 519.992 552.438 521.561 552.438 524.676V526.236C552.438 526.81 552.905 527.277 553.479 527.277H570.129C570.702 527.277 571.169 526.81 571.169 526.236V524.676C571.169 521.561 564.93 519.992 561.803 519.992Z" fill="#3180FF"/>
<path d="M426.062 428.821H467.822V242.198C467.822 238.062 464.47 234.709 460.334 234.709H433.55C429.414 234.709 426.062 238.062 426.062 242.198V428.821Z" fill="#91B9F5"/>
<path d="M373.805 428.821H415.566V294.082C415.566 289.947 412.214 286.594 408.078 286.594H381.292C377.158 286.594 373.805 289.947 373.805 294.082V428.821Z" fill="#D1A548"/>
<path d="M321.562 428.822H363.323V185.72C363.323 181.584 359.972 178.232 355.836 178.232H329.05C324.916 178.232 321.562 181.584 321.562 185.72V428.822Z" fill="#E28165"/>
<path d="M268.789 428.821H311.085V242.198C311.085 238.062 307.733 234.709 303.597 234.709H276.277C272.141 234.709 268.789 238.062 268.789 242.198V428.821Z" fill="#236BFF"/>
<path d="M793.803 108.905H539.209C530.524 108.905 523.484 115.945 523.484 124.63V413.096C523.484 421.781 530.524 428.821 539.209 428.821H793.803C802.488 428.821 809.528 421.781 809.528 413.096V124.63C809.528 115.945 802.488 108.905 793.803 108.905Z" fill="#F2F4F8"/>
<path fill-rule="evenodd" clip-rule="evenodd" d="M665.4 270.246V187.142C619.979 187.698 583.328 224.693 583.328 270.246H583.33C583.33 312.656 615.094 347.647 656.13 352.724L666.44 270.246H665.4Z" fill="#E28165"/>
<path fill-rule="evenodd" clip-rule="evenodd" d="M747.191 249.978L665.164 270.842V187.148C665.512 187.143 665.86 187.142 666.208 187.142C705.206 187.142 737.967 213.853 747.191 249.978Z" fill="#D1A548"/>
<path fill-rule="evenodd" clip-rule="evenodd" d="M665.657 353.739H666.613C712.493 353.481 749.616 316.242 749.684 270.317V270.065C749.673 263.121 748.815 256.374 747.208 249.925L665.5 270.5L655.766 353.103C659.009 353.504 662.309 353.72 665.657 353.739Z" fill="#236BFF"/>
<g opacity="0.25" filter="url(#filter0_d_811_5252)">
<path d="M325.15 439H77.8728C70.211 439 64 445.211 64 452.873V624.127C64 631.789 70.211 638 77.8728 638H325.15C332.812 638 339.022 631.789 339.022 624.127V452.873C339.022 445.211 332.812 439 325.15 439Z" fill="white" fill-opacity="0.01"/>
</g>
<path d="M311.15 439H63.8728C56.211 439 50 445.211 50 452.873V624.127C50 631.789 56.211 638 63.8728 638H311.15C318.812 638 325.022 631.789 325.022 624.127V452.873C325.022 445.211 318.812 439 311.15 439Z" fill="white"/>
<path d="M311.147 439.198H63.8702C56.3178 439.198 50.1953 445.321 50.1953 452.873V624.128C50.1953 631.68 56.3178 637.803 63.8702 637.803H311.147C318.7 637.803 324.822 631.68 324.822 624.128V452.873C324.822 445.321 318.7 439.198 311.147 439.198Z" stroke="#C5CCD8" stroke-opacity="0.3" stroke-width="0.531138"/>
<path d="M214.718 481.483H79.0703C77.0125 481.483 75.3438 483.152 75.3438 485.21C75.3438 487.268 77.0125 488.937 79.0703 488.937H214.718C216.776 488.937 218.445 487.268 218.445 485.21C218.445 483.152 216.776 481.483 214.718 481.483Z" fill="#E4E8F4"/>
<path d="M199.067 465.086H79.8157C77.3457 465.086 75.3438 467.088 75.3438 469.558C75.3438 472.028 77.3457 474.03 79.8157 474.03H199.067C201.537 474.03 203.539 472.028 203.539 469.558C203.539 467.088 201.537 465.086 199.067 465.086Z" fill="#C0C9E2"/>
<path d="M183.415 558.623C183.415 588.467 159.223 612.659 129.379 612.659C99.536 612.659 75.3438 588.467 75.3438 558.623C75.3438 528.78 99.536 504.588 129.379 504.588C159.223 504.588 183.415 528.78 183.415 558.623ZM86.1509 558.623C86.1509 582.498 105.505 601.852 129.379 601.852C153.254 601.852 172.608 582.498 172.608 558.623C172.608 534.749 153.254 515.395 129.379 515.395C105.505 515.395 86.1509 534.749 86.1509 558.623Z" fill="#F1F4F8"/>
<path d="M183.41 558.624C183.41 570.757 179.326 582.538 171.817 592.068L163.328 585.379C169.336 577.755 172.603 568.33 172.603 558.624H183.41Z" fill="#D1A548"/>
<path d="M171.822 592.064C166.548 598.757 159.766 604.109 152.029 607.682C144.292 611.254 135.819 612.946 127.304 612.619C118.788 612.292 110.47 609.956 103.03 605.8C95.59 601.645 89.2376 595.789 84.4922 588.711L93.4695 582.693C97.2655 588.356 102.347 593.041 108.299 596.365C114.252 599.69 120.906 601.558 127.718 601.82C134.531 602.081 141.309 600.728 147.498 597.87C153.688 595.012 159.114 590.731 163.333 585.375L171.822 592.064Z" fill="#236BFF"/>
<path d="M84.5999 588.866C78.3347 579.59 75.1053 568.597 75.3575 557.406C75.6097 546.215 79.3312 535.379 86.0078 526.394C92.6843 517.409 101.987 510.72 112.629 507.25C123.271 503.78 134.729 503.7 145.419 507.023L142.211 517.343C133.659 514.686 124.493 514.749 115.979 517.524C107.465 520.301 100.023 525.652 94.6818 532.84C89.3408 540.028 86.3633 548.697 86.1621 557.649C85.9601 566.602 88.5433 575.397 93.5556 582.818L84.5999 588.866Z" fill="#E28165"/>
<path d="M269.122 523.966H236.328C234.27 523.966 232.602 525.635 232.602 527.692C232.602 529.75 234.27 531.419 236.328 531.419H269.122C271.18 531.419 272.849 529.75 272.849 527.692C272.849 525.635 271.18 523.966 269.122 523.966Z" fill="#E4E8F4"/>
<path d="M296.699 555.27H236.328C234.27 555.27 232.602 556.938 232.602 558.996C232.602 561.054 234.27 562.723 236.328 562.723H296.699C298.757 562.723 300.426 561.054 300.426 558.996C300.426 556.938 298.757 555.27 296.699 555.27Z" fill="#E4E8F4"/>
<path d="M281.793 586.573H236.328C234.27 586.573 232.602 588.242 232.602 590.3C232.602 592.358 234.27 594.026 236.328 594.026H281.793C283.85 594.026 285.519 592.358 285.519 590.3C285.519 588.242 283.85 586.573 281.793 586.573Z" fill="#E4E8F4"/>
<path d="M219.934 534.401C223.639 534.401 226.642 531.398 226.642 527.693C226.642 523.988 223.639 520.985 219.934 520.985C216.229 520.985 213.227 523.988 213.227 527.693C213.227 531.398 216.229 534.401 219.934 534.401Z" fill="#E28165"/>
<path d="M219.934 565.704C223.639 565.704 226.642 562.701 226.642 558.996C226.642 555.291 223.639 552.288 219.934 552.288C216.229 552.288 213.227 555.291 213.227 558.996C213.227 562.701 216.229 565.704 219.934 565.704Z" fill="#236BFF"/>
<path d="M219.934 597.008C223.639 597.008 226.642 594.005 226.642 590.3C226.642 586.595 223.639 583.592 219.934 583.592C216.229 583.592 213.227 586.595 213.227 590.3C213.227 594.005 216.229 597.008 219.934 597.008Z" fill="#D1A548"/>
<defs>
<filter id="filter0_d_811_5252" x="0" y="395" width="423.022" height="347" filterUnits="userSpaceOnUse" color-interpolation-filters="sRGB">
<feFlood flood-opacity="0" result="BackgroundImageFix"/>
<feColorMatrix in="SourceAlpha" type="matrix" values="0 0 0 0 0 0 0 0 0 0 0 0 0 0 0 0 0 0 127 0" result="hardAlpha"/>
<feOffset dx="10" dy="30"/>
<feGaussianBlur stdDeviation="37"/>
<feColorMatrix type="matrix" values="0 0 0 0 0.0572917 0 0 0 0 0.19525 0 0 0 0 0.55 0 0 0 0.25 0"/>
<feBlend mode="normal" in2="BackgroundImageFix" result="effect1_dropShadow_811_5252"/>
<feBlend mode="normal" in="SourceGraphic" in2="effect1_dropShadow_811_5252" result="shape"/>
</filter>
</defs>
</svg>
