<svg width="57" height="57" viewBox="0 0 57 57" fill="none" xmlns="http://www.w3.org/2000/svg">
<circle cx="28.5" cy="28.5" r="28.5" fill="#236BFF" fill-opacity="0.1"/>
<path d="M35.79 30.9298C33.73 32.9798 30.78 33.6098 28.19 32.7998L23.48 37.4998C23.14 37.8498 22.47 38.0598 21.99 37.9898L19.81 37.6898C19.09 37.5898 18.42 36.9098 18.31 36.1898L18.01 34.0098C17.94 33.5298 18.17 32.8598 18.5 32.5198L23.2 27.8198C22.4 25.2198 23.02 22.2698 25.08 20.2198C28.03 17.2698 32.82 17.2698 35.78 20.2198C38.74 23.1698 38.74 27.9798 35.79 30.9298Z" stroke="#236BFF" stroke-width="1.5" stroke-miterlimit="10" stroke-linecap="round" stroke-linejoin="round"/>
<path d="M22.89 33.4902L25.19 35.7902" stroke="#236BFF" stroke-width="1.5" stroke-miterlimit="10" stroke-linecap="round" stroke-linejoin="round"/>
<path d="M30.5 27C31.3284 27 32 26.3284 32 25.5C32 24.6716 31.3284 24 30.5 24C29.6716 24 29 24.6716 29 25.5C29 26.3284 29.6716 27 30.5 27Z" stroke="#236BFF" stroke-width="1.5" stroke-linecap="round" stroke-linejoin="round"/>
</svg>
