<svg width="16" height="16" viewBox="0 0 16 16" fill="none" xmlns="http://www.w3.org/2000/svg">
<path d="M14.2305 1.7704C11.8631 -0.590134 8.02403 -0.590134 5.67263 1.7704C4.01705 3.41077 3.52117 5.77131 4.16101 7.85178L0.401968 11.6126C0.138035 11.8847 -0.0459182 12.4208 0.0100676 12.8049L0.250007 14.5493C0.337984 15.1254 0.873848 15.6696 1.4497 15.7496L3.19326 15.9896C3.57716 16.0456 4.11302 15.8696 4.38495 15.5895L5.04079 14.9334C5.20075 14.7814 5.20075 14.5253 5.04079 14.3653L3.48918 12.8129C3.25724 12.5809 3.25724 12.1968 3.48918 11.9647C3.72112 11.7327 4.10503 11.7327 4.33697 11.9647L5.89657 13.5251C6.04853 13.6771 6.30447 13.6771 6.45643 13.5251L8.152 11.8367C10.2235 12.4848 12.5829 11.9807 14.2305 10.3403C16.5899 7.97981 16.5899 4.13094 14.2305 1.7704ZM9.99953 7.99581C8.89581 7.99581 8.00003 7.09961 8.00003 5.99536C8.00003 4.89111 8.89581 3.99491 9.99953 3.99491C11.1032 3.99491 11.999 4.89111 11.999 5.99536C11.999 7.09961 11.1032 7.99581 9.99953 7.99581Z" fill="#D2D6D9"/>
</svg>
