<svg width="143" height="27" viewBox="0 0 143 27" fill="none" xmlns="http://www.w3.org/2000/svg">
<path d="M61.6707 19.3535H58.7904V24.5196H55V7.30176H62.0362C66.1418 7.30176 68.6281 9.73791 68.6281 13.256V13.3061C68.6281 17.2828 65.5256 19.3535 61.6707 19.3535ZM64.7876 13.3276C64.7876 11.6295 63.6053 10.7195 61.7137 10.7195H58.7904V15.9859H61.7925C63.6841 15.9859 64.7947 14.8538 64.7947 13.3778V13.3276H64.7876Z" fill="#1D3042"/>
<path d="M80.9283 24.5196L77.2383 19.0096H74.2647V24.5196H70.4744V7.30176H78.3417C82.3971 7.30176 84.8333 9.44414 84.8333 12.9837V13.0339C84.8333 15.8139 83.3358 17.5622 81.1432 18.3719L85.3492 24.5196H80.9283ZM80.9999 13.1772C80.9999 11.5507 79.8679 10.7195 78.0264 10.7195H74.2647V15.6635H78.1052C79.9467 15.6635 81.0071 14.6818 81.0071 13.2273V13.1772H80.9999Z" fill="#1D3042"/>
<path d="M87.1721 24.5196V7.30176H90.9553V24.5196H87.1721Z" fill="#1D3042"/>
<path d="M101.577 24.8125C96.511 24.8125 92.7493 20.9004 92.7493 15.9564V15.9063C92.7493 11.0125 96.4393 7 101.727 7C104.973 7 106.915 8.08193 108.513 9.65826L106.105 12.4383C104.78 11.2346 103.425 10.4966 101.706 10.4966C98.8038 10.4966 96.7116 12.9041 96.7116 15.8561V15.9063C96.7116 18.8583 98.7536 21.3159 101.706 21.3159C103.676 21.3159 104.88 20.5278 106.234 19.3025L108.642 21.7387C106.865 23.6303 104.894 24.8125 101.577 24.8125Z" fill="#1D3042"/>
<path d="M110.493 24.5196V7.30176H123.484V10.6694H114.262V14.1588H122.38V17.5264H114.262V21.1448H123.606V24.5124H110.493V24.5196Z" fill="#236BFF"/>
<path d="M135.857 17.6545V24.5187H132.067V17.7334L125.453 7.30811H129.881L133.987 14.2225L138.171 7.30811H142.477L135.857 17.6545Z" fill="#236BFF"/>
<path d="M43.859 13.6133L33.8811 26.3636C33.5676 26.7652 33.0876 26.9955 32.5831 26.9955H24.9907L23.8445 15.3277L27.626 10.4931C28.9044 8.85703 30.8687 7.90186 32.9406 7.90186H41.0767C44.0255 7.90675 45.6763 11.2964 43.859 13.6133Z" fill="url(#paint0_linear_802_7059)"/>
<path d="M23.8622 15.538L19.0472 9.20444C18.3761 8.34723 17.5434 7.62228 16.6029 7.07367L16.1621 6.81896L5.02334 0.338497C3.66161 -0.455029 1.91781 0.206242 1.42308 1.70023L0.27688 5.13884C-0.296222 6.86794 0.0319628 8.76849 1.15368 10.1988L12.459 24.6439C13.6199 26.1281 15.4029 27 17.2936 27H32.5812L23.8622 15.538ZM10.2253 10.2135C9.72572 11.0805 8.3395 11.2176 7.12961 10.5172C5.91973 9.81673 5.34663 8.55296 5.84626 7.68596C6.34588 6.81896 7.73211 6.68181 8.94199 7.38227C10.1519 8.07783 10.725 9.34649 10.2253 10.2135Z" fill="#236BFF"/>
<defs>
<linearGradient id="paint0_linear_802_7059" x1="34.2312" y1="7.90186" x2="34.2312" y2="26.9955" gradientUnits="userSpaceOnUse">
<stop stop-color="#236BFF"/>
<stop offset="1" stop-color="#0557FF"/>
</linearGradient>
</defs>
</svg>
