<svg width="22" height="22" viewBox="0 0 22 22" fill="none" xmlns="http://www.w3.org/2000/svg">
<path d="M6.99461 3.27238C7.15904 3.18268 7.33378 3.32067 7.33378 3.50797V15.9131C7.33378 16.1302 7.18518 16.3134 6.99461 16.4174L4.84044 17.6457C3.33711 18.5074 2.09961 17.7924 2.09961 16.0507V7.13154C2.09961 6.55404 2.51211 5.83904 3.02544 5.54571L6.99461 3.27238Z" fill="#D2D6D9"/>
<path d="M13.4719 5.58203C13.6422 5.66639 13.75 5.84002 13.75 6.0301V17.995C13.75 18.3634 13.365 18.6053 13.033 18.4454L9.22048 16.6086C9.04748 16.5252 8.9375 16.3502 8.9375 16.1581V4.142C8.9375 3.77114 9.32706 3.52935 9.6594 3.69394L13.4719 5.58203Z" fill="#D2D6D9"/>
<path d="M20.167 5.94906V14.8682C20.167 15.4457 19.7545 16.1607 19.2412 16.4541L16.1031 18.2525C15.7698 18.4436 15.3545 18.2029 15.3545 17.8187V5.82688C15.3545 5.64737 15.4507 5.48163 15.6066 5.39264L17.4262 4.35406C18.9295 3.4924 20.167 4.2074 20.167 5.94906Z" fill="#D2D6D9"/>
</svg>
