<svg width="22" height="22" viewBox="0 0 22 22" fill="none" xmlns="http://www.w3.org/2000/svg">
<path d="M11.0026 1.83301C8.60094 1.83301 6.64844 3.78551 6.64844 6.18717C6.64844 8.54301 8.49094 10.4497 10.8926 10.5322C10.9659 10.523 11.0393 10.523 11.0943 10.5322C11.1126 10.5322 11.1218 10.5322 11.1401 10.5322C11.1493 10.5322 11.1493 10.5322 11.1584 10.5322C13.5051 10.4497 15.3476 8.54301 15.3568 6.18717C15.3568 3.78551 13.4043 1.83301 11.0026 1.83301Z" fill="#D2D6D9"/>
<path d="M15.6598 12.9706C13.1023 11.2656 8.93147 11.2656 6.35564 12.9706C5.19147 13.7498 4.5498 14.804 4.5498 15.9315C4.5498 17.059 5.19147 18.104 6.34647 18.874C7.6298 19.7356 9.31647 20.1665 11.0031 20.1665C12.6898 20.1665 14.3765 19.7356 15.6598 18.874C16.8148 18.0948 17.4565 17.0498 17.4565 15.9131C17.4473 14.7856 16.8148 13.7406 15.6598 12.9706Z" fill="#D2D6D9"/>
</svg>
