<svg width="101" height="26" viewBox="0 0 101 26" fill="none" xmlns="http://www.w3.org/2000/svg">
<path d="M9 15.9638L12.9107 14.9748L14.5446 20L9 15.9638ZM18 9.46855H11.1161L9 3L6.88393 9.46855H0L5.57143 13.478L3.45535 19.9465L9.02679 15.9371L12.4554 13.478L18 9.46855Z" fill="#236BFF"/>
<path d="M37.1016 6.625V18H34.7656V6.625H37.1016ZM40.6016 6.625V8.46094H31.3203V6.625H40.6016ZM43.5 11.3906V18H41.25V9.54688H43.3672L43.5 11.3906ZM46.0469 9.49219L46.0078 11.5781C45.8984 11.5625 45.7656 11.5495 45.6094 11.5391C45.4583 11.5234 45.3203 11.5156 45.1953 11.5156C44.8776 11.5156 44.6016 11.5573 44.3672 11.6406C44.138 11.7188 43.9453 11.8359 43.7891 11.9922C43.638 12.1484 43.5234 12.3385 43.4453 12.5625C43.3724 12.7865 43.3307 13.0417 43.3203 13.3281L42.8672 13.1875C42.8672 12.6406 42.9219 12.138 43.0312 11.6797C43.1406 11.2161 43.2995 10.8125 43.5078 10.4688C43.7214 10.125 43.9818 9.85938 44.2891 9.67188C44.5964 9.48438 44.9479 9.39062 45.3438 9.39062C45.4688 9.39062 45.5964 9.40104 45.7266 9.42188C45.8568 9.4375 45.9635 9.46094 46.0469 9.49219ZM52.1094 15.9766V9.54688H54.3594V18H52.2422L52.1094 15.9766ZM52.3594 14.2422L53.0234 14.2266C53.0234 14.7891 52.9583 15.3125 52.8281 15.7969C52.6979 16.276 52.5026 16.6927 52.2422 17.0469C51.9818 17.3958 51.6536 17.6693 51.2578 17.8672C50.862 18.0599 50.3958 18.1562 49.8594 18.1562C49.4479 18.1562 49.0677 18.099 48.7188 17.9844C48.375 17.8646 48.0781 17.6797 47.8281 17.4297C47.5833 17.1745 47.3906 16.849 47.25 16.4531C47.1146 16.0521 47.0469 15.5703 47.0469 15.0078V9.54688H49.2969V15.0234C49.2969 15.2734 49.3255 15.4844 49.3828 15.6562C49.4453 15.8281 49.5312 15.9688 49.6406 16.0781C49.75 16.1875 49.8776 16.2656 50.0234 16.3125C50.1745 16.3594 50.3411 16.3828 50.5234 16.3828C50.987 16.3828 51.3516 16.2891 51.6172 16.1016C51.888 15.9141 52.0781 15.6589 52.1875 15.3359C52.3021 15.0078 52.3594 14.6432 52.3594 14.2422ZM60.6484 15.6641C60.6484 15.5026 60.6016 15.3568 60.5078 15.2266C60.4141 15.0964 60.2396 14.9766 59.9844 14.8672C59.7344 14.7526 59.3724 14.6484 58.8984 14.5547C58.4714 14.4609 58.0729 14.3438 57.7031 14.2031C57.3385 14.0573 57.0208 13.8828 56.75 13.6797C56.4844 13.4766 56.276 13.237 56.125 12.9609C55.974 12.6797 55.8984 12.3594 55.8984 12C55.8984 11.6458 55.974 11.3125 56.125 11C56.2812 10.6875 56.5026 10.4115 56.7891 10.1719C57.0807 9.92708 57.4349 9.73698 57.8516 9.60156C58.2734 9.46094 58.7474 9.39062 59.2734 9.39062C60.0078 9.39062 60.638 9.50781 61.1641 9.74219C61.6953 9.97656 62.1016 10.2995 62.3828 10.7109C62.6693 11.1172 62.8125 11.5807 62.8125 12.1016H60.5625C60.5625 11.8828 60.5156 11.6875 60.4219 11.5156C60.3333 11.3385 60.1927 11.2005 60 11.1016C59.8125 10.9974 59.5677 10.9453 59.2656 10.9453C59.0156 10.9453 58.7995 10.9896 58.6172 11.0781C58.4349 11.1615 58.2943 11.276 58.1953 11.4219C58.1016 11.5625 58.0547 11.7188 58.0547 11.8906C58.0547 12.0208 58.0807 12.138 58.1328 12.2422C58.1901 12.3411 58.2812 12.4323 58.4062 12.5156C58.5312 12.599 58.6927 12.6771 58.8906 12.75C59.0938 12.8177 59.3438 12.8802 59.6406 12.9375C60.25 13.0625 60.7943 13.2266 61.2734 13.4297C61.7526 13.6276 62.1328 13.8984 62.4141 14.2422C62.6953 14.5807 62.8359 15.026 62.8359 15.5781C62.8359 15.9531 62.7526 16.2969 62.5859 16.6094C62.4193 16.9219 62.1797 17.1953 61.8672 17.4297C61.5547 17.6589 61.1797 17.8385 60.7422 17.9688C60.3099 18.0938 59.8229 18.1562 59.2812 18.1562C58.4948 18.1562 57.8281 18.0156 57.2812 17.7344C56.7396 17.4531 56.3281 17.0964 56.0469 16.6641C55.7708 16.2266 55.6328 15.7786 55.6328 15.3203H57.7656C57.776 15.6276 57.8542 15.875 58 16.0625C58.151 16.25 58.3411 16.3854 58.5703 16.4688C58.8047 16.5521 59.0573 16.5938 59.3281 16.5938C59.6198 16.5938 59.862 16.5547 60.0547 16.4766C60.2474 16.3932 60.3932 16.2839 60.4922 16.1484C60.5964 16.0078 60.6484 15.8464 60.6484 15.6641ZM68.4375 9.54688V11.1406H63.5156V9.54688H68.4375ZM64.7344 7.46094H66.9844V15.4531C66.9844 15.6979 67.0156 15.8854 67.0781 16.0156C67.1458 16.1458 67.2448 16.237 67.375 16.2891C67.5052 16.3359 67.6693 16.3594 67.8672 16.3594C68.0078 16.3594 68.1328 16.3542 68.2422 16.3438C68.3568 16.3281 68.4531 16.3125 68.5312 16.2969L68.5391 17.9531C68.3464 18.0156 68.138 18.0651 67.9141 18.1016C67.6901 18.138 67.4427 18.1562 67.1719 18.1562C66.6771 18.1562 66.2448 18.0755 65.875 17.9141C65.5104 17.7474 65.2292 17.4818 65.0312 17.1172C64.8333 16.7526 64.7344 16.2734 64.7344 15.6797V7.46094ZM71.9688 11.1719V21.25H69.7188V9.54688H71.8047L71.9688 11.1719ZM77.3203 13.6797V13.8438C77.3203 14.4583 77.2474 15.0286 77.1016 15.5547C76.9609 16.0807 76.7526 16.5391 76.4766 16.9297C76.2005 17.3151 75.8568 17.6172 75.4453 17.8359C75.0391 18.0495 74.5703 18.1562 74.0391 18.1562C73.5234 18.1562 73.0755 18.0521 72.6953 17.8438C72.3151 17.6354 71.9948 17.3438 71.7344 16.9688C71.4792 16.5885 71.2734 16.1484 71.1172 15.6484C70.9609 15.1484 70.8411 14.612 70.7578 14.0391V13.6094C70.8411 12.9948 70.9609 12.4323 71.1172 11.9219C71.2734 11.4062 71.4792 10.9609 71.7344 10.5859C71.9948 10.2057 72.3125 9.91146 72.6875 9.70312C73.0677 9.49479 73.513 9.39062 74.0234 9.39062C74.5599 9.39062 75.0312 9.49219 75.4375 9.69531C75.849 9.89844 76.1927 10.1901 76.4688 10.5703C76.75 10.9505 76.9609 11.4036 77.1016 11.9297C77.2474 12.4557 77.3203 13.0391 77.3203 13.6797ZM75.0625 13.8438V13.6797C75.0625 13.3203 75.0312 12.9896 74.9688 12.6875C74.9115 12.3802 74.8177 12.112 74.6875 11.8828C74.5625 11.6536 74.3958 11.4766 74.1875 11.3516C73.9844 11.2214 73.737 11.1562 73.4453 11.1562C73.138 11.1562 72.875 11.2057 72.6562 11.3047C72.4427 11.4036 72.2682 11.5469 72.1328 11.7344C71.9974 11.9219 71.8958 12.1458 71.8281 12.4062C71.7604 12.6667 71.7188 12.9609 71.7031 13.2891V14.375C71.7292 14.7604 71.8021 15.1068 71.9219 15.4141C72.0417 15.7161 72.2266 15.9557 72.4766 16.1328C72.7266 16.3099 73.0547 16.3984 73.4609 16.3984C73.7578 16.3984 74.0078 16.3333 74.2109 16.2031C74.4141 16.0677 74.5781 15.8828 74.7031 15.6484C74.8333 15.4141 74.9245 15.1432 74.9766 14.8359C75.0339 14.5286 75.0625 14.1979 75.0625 13.8438ZM81.0938 9.54688V18H78.8359V9.54688H81.0938ZM78.6953 7.34375C78.6953 7.01562 78.8099 6.74479 79.0391 6.53125C79.2682 6.31771 79.5755 6.21094 79.9609 6.21094C80.3411 6.21094 80.6458 6.31771 80.875 6.53125C81.1094 6.74479 81.2266 7.01562 81.2266 7.34375C81.2266 7.67188 81.1094 7.94271 80.875 8.15625C80.6458 8.36979 80.3411 8.47656 79.9609 8.47656C79.5755 8.47656 79.2682 8.36979 79.0391 8.15625C78.8099 7.94271 78.6953 7.67188 78.6953 7.34375ZM85.3281 6V18H83.0703V6H85.3281ZM86.8281 13.8594V13.6953C86.8281 13.0755 86.9167 12.5052 87.0938 11.9844C87.2708 11.4583 87.5286 11.0026 87.8672 10.6172C88.2057 10.2318 88.6224 9.93229 89.1172 9.71875C89.612 9.5 90.1797 9.39062 90.8203 9.39062C91.4609 9.39062 92.0312 9.5 92.5312 9.71875C93.0312 9.93229 93.4505 10.2318 93.7891 10.6172C94.1328 11.0026 94.3932 11.4583 94.5703 11.9844C94.7474 12.5052 94.8359 13.0755 94.8359 13.6953V13.8594C94.8359 14.474 94.7474 15.0443 94.5703 15.5703C94.3932 16.0911 94.1328 16.5469 93.7891 16.9375C93.4505 17.3229 93.0339 17.6224 92.5391 17.8359C92.0443 18.0495 91.4766 18.1562 90.8359 18.1562C90.1953 18.1562 89.625 18.0495 89.125 17.8359C88.6302 17.6224 88.2109 17.3229 87.8672 16.9375C87.5286 16.5469 87.2708 16.0911 87.0938 15.5703C86.9167 15.0443 86.8281 14.474 86.8281 13.8594ZM89.0781 13.6953V13.8594C89.0781 14.2135 89.1094 14.5443 89.1719 14.8516C89.2344 15.1589 89.3333 15.4297 89.4688 15.6641C89.6094 15.8932 89.7917 16.0729 90.0156 16.2031C90.2396 16.3333 90.513 16.3984 90.8359 16.3984C91.1484 16.3984 91.4167 16.3333 91.6406 16.2031C91.8646 16.0729 92.0443 15.8932 92.1797 15.6641C92.3151 15.4297 92.4141 15.1589 92.4766 14.8516C92.5443 14.5443 92.5781 14.2135 92.5781 13.8594V13.6953C92.5781 13.3516 92.5443 13.0286 92.4766 12.7266C92.4141 12.4193 92.3125 12.1484 92.1719 11.9141C92.0365 11.6745 91.8568 11.487 91.6328 11.3516C91.4089 11.2161 91.138 11.1484 90.8203 11.1484C90.5026 11.1484 90.2318 11.2161 90.0078 11.3516C89.7891 11.487 89.6094 11.6745 89.4688 11.9141C89.3333 12.1484 89.2344 12.4193 89.1719 12.7266C89.1094 13.0286 89.0781 13.3516 89.0781 13.6953ZM100.359 9.54688V11.1406H95.4375V9.54688H100.359ZM96.6562 7.46094H98.9062V15.4531C98.9062 15.6979 98.9375 15.8854 99 16.0156C99.0677 16.1458 99.1667 16.237 99.2969 16.2891C99.4271 16.3359 99.5911 16.3594 99.7891 16.3594C99.9297 16.3594 100.055 16.3542 100.164 16.3438C100.279 16.3281 100.375 16.3125 100.453 16.2969L100.461 17.9531C100.268 18.0156 100.06 18.0651 99.8359 18.1016C99.612 18.138 99.3646 18.1562 99.0938 18.1562C98.599 18.1562 98.1667 18.0755 97.7969 17.9141C97.4323 17.7474 97.151 17.4818 96.9531 17.1172C96.7552 16.7526 96.6562 16.2734 96.6562 15.6797V7.46094Z" fill="black"/>
</svg>
